<?xml version="1.0" encoding="utf-8" standalone="no"?>
<!DOCTYPE svg PUBLIC "-//W3C//DTD SVG 1.1//EN"
  "http://www.w3.org/Graphics/SVG/1.1/DTD/svg11.dtd">
<svg xmlns:xlink="http://www.w3.org/1999/xlink" width="156.24pt" height="177.84pt" viewBox="0 0 156.24 177.84" xmlns="http://www.w3.org/2000/svg" version="1.1">
 <metadata>
  <rdf:RDF xmlns:dc="http://purl.org/dc/elements/1.1/" xmlns:cc="http://creativecommons.org/ns#" xmlns:rdf="http://www.w3.org/1999/02/22-rdf-syntax-ns#">
   <cc:Work>
    <dc:type rdf:resource="http://purl.org/dc/dcmitype/StillImage"/>
    <dc:date>2026-08-02T16:22:43.688890</dc:date>
    <dc:format>image/svg+xml</dc:format>
    <dc:creator>
     <cc:Agent>
      <dc:title>Matplotlib v3.7.2, https://matplotlib.org/</dc:title>
     </cc:Agent>
    </dc:creator>
   </cc:Work>
  </rdf:RDF>
 </metadata>
 <defs>
  <style type="text/css">*{stroke-linejoin: round; stroke-linecap: butt}</style>
 </defs>
 <g id="figure_1">
  <g id="patch_1">
   <path d="M 0 177.84 
L 156.24 177.84 
L 156.24 0 
L 0 0 
z
" style="fill: #ffffff"/>
  </g>
  <g id="axes_1">
   <g id="patch_2">
    <path d="M 27.827717 165.67937 
L 155.850127 165.67937 
L 155.850127 12.588306 
L 27.827717 12.588306 
z
" style="fill: #ffffff"/>
   </g>
   <g id="matplotlib.axis_1">
    <g id="xtick_1">
     <g id="line2d_1">
      <defs>
       <path id="mffa6ce82cd" d="M 0 0 
L 0 2.2 
" style="stroke: #000000; stroke-width: 0.45"/>
      </defs>
      <g>
       <use xlink:href="#mffa6ce82cd" x="33.646917" y="165.67937" style="stroke: #000000; stroke-width: 0.45"/>
      </g>
     </g>
     <g id="text_1">
      <text style="font: 5.4px 'Microsoft YaHei', 'Arial', 'DejaVu Sans', sans-serif; text-anchor: middle" x="33.646917" y="175.695995" transform="rotate(-0 33.646917 175.695995)">能量</text>
     </g>
    </g>
    <g id="xtick_2">
     <g id="line2d_2">
      <g>
       <use xlink:href="#mffa6ce82cd" x="72.441587" y="165.67937" style="stroke: #000000; stroke-width: 0.45"/>
      </g>
     </g>
     <g id="text_2">
      <text style="font: 5.4px 'Microsoft YaHei', 'Arial', 'DejaVu Sans', sans-serif; text-anchor: middle" x="72.441587" y="175.695995" transform="rotate(-0 72.441587 175.695995)">距离</text>
     </g>
    </g>
    <g id="xtick_3">
     <g id="line2d_3">
      <g>
       <use xlink:href="#mffa6ce82cd" x="111.236257" y="165.67937" style="stroke: #000000; stroke-width: 0.45"/>
      </g>
     </g>
     <g id="text_3">
      <text style="font: 5.4px 'Microsoft YaHei', 'Arial', 'DejaVu Sans', sans-serif; text-anchor: middle" x="111.236257" y="175.695995" transform="rotate(-0 111.236257 175.695995)">时间</text>
     </g>
    </g>
    <g id="xtick_4">
     <g id="line2d_4">
      <g>
       <use xlink:href="#mffa6ce82cd" x="150.030927" y="165.67937" style="stroke: #000000; stroke-width: 0.45"/>
      </g>
     </g>
     <g id="text_4">
      <text style="font: 5.4px 'Microsoft YaHei', 'Arial', 'DejaVu Sans', sans-serif; text-anchor: middle" x="150.030927" y="175.695995" transform="rotate(-0 150.030927 175.695995)">混合</text>
     </g>
    </g>
   </g>
   <g id="matplotlib.axis_2">
    <g id="ytick_1">
     <g id="line2d_5">
      <defs>
       <path id="m44bb1da185" d="M 0 0 
L -2.2 0 
" style="stroke: #000000; stroke-width: 0.45"/>
      </defs>
      <g>
       <use xlink:href="#m44bb1da185" x="27.827717" y="140.265329" style="stroke: #000000; stroke-width: 0.45"/>
      </g>
     </g>
     <g id="text_5">
      <text style="font: 5.4px 'Microsoft YaHei', 'Arial', 'DejaVu Sans', sans-serif; text-anchor: end" x="22.127717" y="142.423642" transform="rotate(-0 22.127717 142.423642)">0.47</text>
     </g>
    </g>
    <g id="ytick_2">
     <g id="line2d_6">
      <g>
       <use xlink:href="#m44bb1da185" x="27.827717" y="109.541236" style="stroke: #000000; stroke-width: 0.45"/>
      </g>
     </g>
     <g id="text_6">
      <text style="font: 5.4px 'Microsoft YaHei', 'Arial', 'DejaVu Sans', sans-serif; text-anchor: end" x="22.127717" y="111.699549" transform="rotate(-0 22.127717 111.699549)">0.48</text>
     </g>
    </g>
    <g id="ytick_3">
     <g id="line2d_7">
      <g>
       <use xlink:href="#m44bb1da185" x="27.827717" y="78.817144" style="stroke: #000000; stroke-width: 0.45"/>
      </g>
     </g>
     <g id="text_7">
      <text style="font: 5.4px 'Microsoft YaHei', 'Arial', 'DejaVu Sans', sans-serif; text-anchor: end" x="22.127717" y="80.975456" transform="rotate(-0 22.127717 80.975456)">0.49</text>
     </g>
    </g>
    <g id="ytick_4">
     <g id="line2d_8">
      <g>
       <use xlink:href="#m44bb1da185" x="27.827717" y="48.093051" style="stroke: #000000; stroke-width: 0.45"/>
      </g>
     </g>
     <g id="text_8">
      <text style="font: 5.4px 'Microsoft YaHei', 'Arial', 'DejaVu Sans', sans-serif; text-anchor: end" x="22.127717" y="50.251364" transform="rotate(-0 22.127717 50.251364)">0.50</text>
     </g>
    </g>
    <g id="ytick_5">
     <g id="line2d_9">
      <g>
       <use xlink:href="#m44bb1da185" x="27.827717" y="17.368959" style="stroke: #000000; stroke-width: 0.45"/>
      </g>
     </g>
     <g id="text_9">
      <text style="font: 5.4px 'Microsoft YaHei', 'Arial', 'DejaVu Sans', sans-serif; text-anchor: end" x="22.127717" y="19.527271" transform="rotate(-0 22.127717 19.527271)">0.51</text>
     </g>
    </g>
    <g id="text_10">
     <text style="font: 6.2px 'Microsoft YaHei', 'Arial', 'DejaVu Sans', sans-serif; text-anchor: middle" x="5.786435" y="89.133838" transform="rotate(-90 5.786435 89.133838)">安全加权覆盖率</text>
    </g>
   </g>
   <g id="line2d_10">
    <path d="M 33.646917 38.139943 
L 72.441587 144.423706 
L 111.236257 22.491383 
L 150.030927 80.025033 
" clip-path="url(#paf3f78a4d7)" style="fill: none; stroke: #0f4d92; stroke-width: 1.2; stroke-linecap: square"/>
    <defs>
     <path id="mf8545b78be" d="M 0 1.5 
C 0.397805 1.5 0.77937 1.341951 1.06066 1.06066 
C 1.341951 0.77937 1.5 0.397805 1.5 0 
C 1.5 -0.397805 1.341951 -0.77937 1.06066 -1.06066 
C 0.77937 -1.341951 0.397805 -1.5 0 -1.5 
C -0.397805 -1.5 -0.77937 -1.341951 -1.06066 -1.06066 
C -1.341951 -0.77937 -1.5 -0.397805 -1.5 0 
C -1.5 0.397805 -1.341951 0.77937 -1.06066 1.06066 
C -0.77937 1.341951 -0.397805 1.5 0 1.5 
z
" style="stroke: #0f4d92"/>
    </defs>
    <g clip-path="url(#paf3f78a4d7)">
     <use xlink:href="#mf8545b78be" x="33.646917" y="38.139943" style="fill: #0f4d92; stroke: #0f4d92"/>
     <use xlink:href="#mf8545b78be" x="72.441587" y="144.423706" style="fill: #0f4d92; stroke: #0f4d92"/>
     <use xlink:href="#mf8545b78be" x="111.236257" y="22.491383" style="fill: #0f4d92; stroke: #0f4d92"/>
     <use xlink:href="#mf8545b78be" x="150.030927" y="80.025033" style="fill: #0f4d92; stroke: #0f4d92"/>
    </g>
   </g>
   <g id="line2d_11">
    <path d="M 33.646917 32.968751 
L 72.441587 158.720685 
L 111.236257 19.54699 
L 150.030927 87.352485 
" clip-path="url(#paf3f78a4d7)" style="fill: none; stroke: #b58aa5; stroke-width: 1.2; stroke-linecap: square"/>
    <defs>
     <path id="m04901f1ab9" d="M 0 1.5 
C 0.397805 1.5 0.77937 1.341951 1.06066 1.06066 
C 1.341951 0.77937 1.5 0.397805 1.5 0 
C 1.5 -0.397805 1.341951 -0.77937 1.06066 -1.06066 
C 0.77937 -1.341951 0.397805 -1.5 0 -1.5 
C -0.397805 -1.5 -0.77937 -1.341951 -1.06066 -1.06066 
C -1.341951 -0.77937 -1.5 -0.397805 -1.5 0 
C -1.5 0.397805 -1.341951 0.77937 -1.06066 1.06066 
C -0.77937 1.341951 -0.397805 1.5 0 1.5 
z
" style="stroke: #b58aa5"/>
    </defs>
    <g clip-path="url(#paf3f78a4d7)">
     <use xlink:href="#m04901f1ab9" x="33.646917" y="32.968751" style="fill: #b58aa5; stroke: #b58aa5"/>
     <use xlink:href="#m04901f1ab9" x="72.441587" y="158.720685" style="fill: #b58aa5; stroke: #b58aa5"/>
     <use xlink:href="#m04901f1ab9" x="111.236257" y="19.54699" style="fill: #b58aa5; stroke: #b58aa5"/>
     <use xlink:href="#m04901f1ab9" x="150.030927" y="87.352485" style="fill: #b58aa5; stroke: #b58aa5"/>
    </g>
   </g>
   <g id="patch_3">
    <path d="M 27.827717 165.67937 
L 27.827717 12.588306 
" style="fill: none; stroke: #000000; stroke-width: 0.55; stroke-linejoin: miter; stroke-linecap: square"/>
   </g>
   <g id="patch_4">
    <path d="M 27.827717 165.67937 
L 155.850127 165.67937 
" style="fill: none; stroke: #000000; stroke-width: 0.55; stroke-linejoin: miter; stroke-linecap: square"/>
   </g>
   <g id="text_11">
    <text style="font: 700 7px 'Microsoft YaHei', 'Arial', 'DejaVu Sans', sans-serif; text-anchor: middle" x="91.838922" y="6.588306" transform="rotate(-0 91.838922 6.588306)">资源塑形与瓶颈类型</text>
   </g>
   <g id="legend_1">
    <g id="line2d_12">
     <path d="M 31.967717 18.795431 
L 36.567717 18.795431 
L 41.167717 18.795431 
" style="fill: none; stroke: #0f4d92; stroke-width: 1.2; stroke-linecap: square"/>
     <g>
      <use xlink:href="#mf8545b78be" x="36.567717" y="18.795431" style="fill: #0f4d92; stroke: #0f4d92"/>
     </g>
    </g>
    <g id="text_12">
     <text style="font: 4.6px 'Microsoft YaHei', 'Arial', 'DejaVu Sans', sans-serif; text-anchor: start" x="44.847717" y="20.405431" transform="rotate(-0 44.847717 20.405431)">PPO+Pointer</text>
    </g>
    <g id="line2d_13">
     <path d="M 31.967717 25.916087 
L 36.567717 25.916087 
L 41.167717 25.916087 
" style="fill: none; stroke: #b58aa5; stroke-width: 1.2; stroke-linecap: square"/>
     <g>
      <use xlink:href="#m04901f1ab9" x="36.567717" y="25.916087" style="fill: #b58aa5; stroke: #b58aa5"/>
     </g>
    </g>
    <g id="text_13">
     <text style="font: 4.6px 'Microsoft YaHei', 'Arial', 'DejaVu Sans', sans-serif; text-anchor: start" x="44.847717" y="27.526087" transform="rotate(-0 44.847717 27.526087)">无资源塑形</text>
    </g>
   </g>
  </g>
 </g>
 <defs>
  <clipPath id="paf3f78a4d7">
   <rect x="27.827717" y="12.588306" width="128.022411" height="153.091064"/>
  </clipPath>
 </defs>
</svg>
