<?xml version="1.0" encoding="utf-8" standalone="no"?>
<!DOCTYPE svg PUBLIC "-//W3C//DTD SVG 1.1//EN"
  "http://www.w3.org/Graphics/SVG/1.1/DTD/svg11.dtd">
<svg xmlns:xlink="http://www.w3.org/1999/xlink" width="218.88pt" height="195.12pt" viewBox="0 0 218.88 195.12" xmlns="http://www.w3.org/2000/svg" version="1.1">
 <metadata>
  <rdf:RDF xmlns:dc="http://purl.org/dc/elements/1.1/" xmlns:cc="http://creativecommons.org/ns#" xmlns:rdf="http://www.w3.org/1999/02/22-rdf-syntax-ns#">
   <cc:Work>
    <dc:type rdf:resource="http://purl.org/dc/dcmitype/StillImage"/>
    <dc:date>2026-08-02T16:23:03.630793</dc:date>
    <dc:format>image/svg+xml</dc:format>
    <dc:creator>
     <cc:Agent>
      <dc:title>Matplotlib v3.7.2, https://matplotlib.org/</dc:title>
     </cc:Agent>
    </dc:creator>
   </cc:Work>
  </rdf:RDF>
 </metadata>
 <defs>
  <style type="text/css">*{stroke-linejoin: round; stroke-linecap: butt}</style>
 </defs>
 <g id="figure_1">
  <g id="patch_1">
   <path d="M 0 195.12 
L 218.88 195.12 
L 218.88 0 
L 0 0 
z
" style="fill: #ffffff"/>
  </g>
  <g id="axes_1">
   <g id="patch_2">
    <path d="M 24.212287 173.77479 
L 217.919055 173.77479 
L 217.919055 12.387402 
L 24.212287 12.387402 
z
" style="fill: #ffffff"/>
   </g>
   <g id="matplotlib.axis_1">
    <g id="xtick_1">
     <g id="line2d_1">
      <defs>
       <path id="mc3ee066836" d="M 0 0 
L 0 2.2 
" style="stroke: #000000; stroke-width: 0.45"/>
      </defs>
      <g>
       <use xlink:href="#mc3ee066836" x="33.017141" y="173.77479" style="stroke: #000000; stroke-width: 0.45"/>
      </g>
     </g>
     <g id="text_1">
      <text style="font: 5.4px 'Microsoft YaHei', 'Arial', 'DejaVu Sans', sans-serif; text-anchor: middle" x="33.017141" y="183.791415" transform="rotate(-0 33.017141 183.791415)">0.0</text>
     </g>
    </g>
    <g id="xtick_2">
     <g id="line2d_2">
      <g>
       <use xlink:href="#mc3ee066836" x="55.029273" y="173.77479" style="stroke: #000000; stroke-width: 0.45"/>
      </g>
     </g>
     <g id="text_2">
      <text style="font: 5.4px 'Microsoft YaHei', 'Arial', 'DejaVu Sans', sans-serif; text-anchor: middle" x="55.029273" y="183.791415" transform="rotate(-0 55.029273 183.791415)">0.1</text>
     </g>
    </g>
    <g id="xtick_3">
     <g id="line2d_3">
      <g>
       <use xlink:href="#mc3ee066836" x="77.041406" y="173.77479" style="stroke: #000000; stroke-width: 0.45"/>
      </g>
     </g>
     <g id="text_3">
      <text style="font: 5.4px 'Microsoft YaHei', 'Arial', 'DejaVu Sans', sans-serif; text-anchor: middle" x="77.041406" y="183.791415" transform="rotate(-0 77.041406 183.791415)">0.2</text>
     </g>
    </g>
    <g id="xtick_4">
     <g id="line2d_4">
      <g>
       <use xlink:href="#mc3ee066836" x="99.053539" y="173.77479" style="stroke: #000000; stroke-width: 0.45"/>
      </g>
     </g>
     <g id="text_4">
      <text style="font: 5.4px 'Microsoft YaHei', 'Arial', 'DejaVu Sans', sans-serif; text-anchor: middle" x="99.053539" y="183.791415" transform="rotate(-0 99.053539 183.791415)">0.3</text>
     </g>
    </g>
    <g id="xtick_5">
     <g id="line2d_5">
      <g>
       <use xlink:href="#mc3ee066836" x="121.065671" y="173.77479" style="stroke: #000000; stroke-width: 0.45"/>
      </g>
     </g>
     <g id="text_5">
      <text style="font: 5.4px 'Microsoft YaHei', 'Arial', 'DejaVu Sans', sans-serif; text-anchor: middle" x="121.065671" y="183.791415" transform="rotate(-0 121.065671 183.791415)">0.4</text>
     </g>
    </g>
    <g id="xtick_6">
     <g id="line2d_6">
      <g>
       <use xlink:href="#mc3ee066836" x="143.077804" y="173.77479" style="stroke: #000000; stroke-width: 0.45"/>
      </g>
     </g>
     <g id="text_6">
      <text style="font: 5.4px 'Microsoft YaHei', 'Arial', 'DejaVu Sans', sans-serif; text-anchor: middle" x="143.077804" y="183.791415" transform="rotate(-0 143.077804 183.791415)">0.5</text>
     </g>
    </g>
    <g id="xtick_7">
     <g id="line2d_7">
      <g>
       <use xlink:href="#mc3ee066836" x="165.089937" y="173.77479" style="stroke: #000000; stroke-width: 0.45"/>
      </g>
     </g>
     <g id="text_7">
      <text style="font: 5.4px 'Microsoft YaHei', 'Arial', 'DejaVu Sans', sans-serif; text-anchor: middle" x="165.089937" y="183.791415" transform="rotate(-0 165.089937 183.791415)">0.6</text>
     </g>
    </g>
    <g id="xtick_8">
     <g id="line2d_8">
      <g>
       <use xlink:href="#mc3ee066836" x="187.102069" y="173.77479" style="stroke: #000000; stroke-width: 0.45"/>
      </g>
     </g>
     <g id="text_8">
      <text style="font: 5.4px 'Microsoft YaHei', 'Arial', 'DejaVu Sans', sans-serif; text-anchor: middle" x="187.102069" y="183.791415" transform="rotate(-0 187.102069 183.791415)">0.7</text>
     </g>
    </g>
    <g id="xtick_9">
     <g id="line2d_9">
      <g>
       <use xlink:href="#mc3ee066836" x="209.114202" y="173.77479" style="stroke: #000000; stroke-width: 0.45"/>
      </g>
     </g>
     <g id="text_9">
      <text style="font: 5.4px 'Microsoft YaHei', 'Arial', 'DejaVu Sans', sans-serif; text-anchor: middle" x="209.114202" y="183.791415" transform="rotate(-0 209.114202 183.791415)">0.8</text>
     </g>
    </g>
    <g id="text_10">
     <text style="font: 6.2px 'Microsoft YaHei', 'Arial', 'DejaVu Sans', sans-serif; text-anchor: middle" x="121.065671" y="194.089946" transform="rotate(-0 121.065671 194.089946)">运行区间下限</text>
    </g>
   </g>
   <g id="matplotlib.axis_2">
    <g id="ytick_1">
     <g id="line2d_10">
      <defs>
       <path id="m623eed4da0" d="M 0 0 
L -2.2 0 
" style="stroke: #000000; stroke-width: 0.45"/>
      </defs>
      <g>
       <use xlink:href="#m623eed4da0" x="24.212287" y="169.207223" style="stroke: #000000; stroke-width: 0.45"/>
      </g>
     </g>
     <g id="text_11">
      <text style="font: 5.4px 'Microsoft YaHei', 'Arial', 'DejaVu Sans', sans-serif; text-anchor: end" x="18.512287" y="171.365535" transform="rotate(-0 18.512287 171.365535)">0.0</text>
     </g>
    </g>
    <g id="ytick_2">
     <g id="line2d_11">
      <g>
       <use xlink:href="#m623eed4da0" x="24.212287" y="138.756772" style="stroke: #000000; stroke-width: 0.45"/>
      </g>
     </g>
     <g id="text_12">
      <text style="font: 5.4px 'Microsoft YaHei', 'Arial', 'DejaVu Sans', sans-serif; text-anchor: end" x="18.512287" y="140.915084" transform="rotate(-0 18.512287 140.915084)">0.2</text>
     </g>
    </g>
    <g id="ytick_3">
     <g id="line2d_12">
      <g>
       <use xlink:href="#m623eed4da0" x="24.212287" y="108.306321" style="stroke: #000000; stroke-width: 0.45"/>
      </g>
     </g>
     <g id="text_13">
      <text style="font: 5.4px 'Microsoft YaHei', 'Arial', 'DejaVu Sans', sans-serif; text-anchor: end" x="18.512287" y="110.464634" transform="rotate(-0 18.512287 110.464634)">0.4</text>
     </g>
    </g>
    <g id="ytick_4">
     <g id="line2d_13">
      <g>
       <use xlink:href="#m623eed4da0" x="24.212287" y="77.855871" style="stroke: #000000; stroke-width: 0.45"/>
      </g>
     </g>
     <g id="text_14">
      <text style="font: 5.4px 'Microsoft YaHei', 'Arial', 'DejaVu Sans', sans-serif; text-anchor: end" x="18.512287" y="80.014183" transform="rotate(-0 18.512287 80.014183)">0.6</text>
     </g>
    </g>
    <g id="ytick_5">
     <g id="line2d_14">
      <g>
       <use xlink:href="#m623eed4da0" x="24.212287" y="47.40542" style="stroke: #000000; stroke-width: 0.45"/>
      </g>
     </g>
     <g id="text_15">
      <text style="font: 5.4px 'Microsoft YaHei', 'Arial', 'DejaVu Sans', sans-serif; text-anchor: end" x="18.512287" y="49.563732" transform="rotate(-0 18.512287 49.563732)">0.8</text>
     </g>
    </g>
    <g id="ytick_6">
     <g id="line2d_15">
      <g>
       <use xlink:href="#m623eed4da0" x="24.212287" y="16.954969" style="stroke: #000000; stroke-width: 0.45"/>
      </g>
     </g>
     <g id="text_16">
      <text style="font: 5.4px 'Microsoft YaHei', 'Arial', 'DejaVu Sans', sans-serif; text-anchor: end" x="18.512287" y="19.113282" transform="rotate(-0 18.512287 19.113282)">1.0</text>
     </g>
    </g>
    <g id="text_17">
     <text style="font: 6.2px 'Microsoft YaHei', 'Arial', 'DejaVu Sans', sans-serif; text-anchor: middle" x="5.3376" y="93.081096" transform="rotate(-90 5.3376 93.081096)">第一名占比</text>
    </g>
   </g>
   <g id="line2d_16">
    <path d="M 33.017141 67.135944 
L 77.041406 39.786702 
L 121.065671 23.181806 
L 165.089937 16.954969 
L 209.114202 16.954969 
" clip-path="url(#p6e055bdec9)" style="fill: none; stroke: #0f4d92; stroke-width: 1.2; stroke-linecap: square"/>
    <defs>
     <path id="m67da05c592" d="M 0 1.5 
C 0.397805 1.5 0.77937 1.341951 1.06066 1.06066 
C 1.341951 0.77937 1.5 0.397805 1.5 0 
C 1.5 -0.397805 1.341951 -0.77937 1.06066 -1.06066 
C 0.77937 -1.341951 0.397805 -1.5 0 -1.5 
C -0.397805 -1.5 -0.77937 -1.341951 -1.06066 -1.06066 
C -1.341951 -0.77937 -1.5 -0.397805 -1.5 0 
C -1.5 0.397805 -1.341951 0.77937 -1.06066 1.06066 
C -0.77937 1.341951 -0.397805 1.5 0 1.5 
z
" style="stroke: #0f4d92"/>
    </defs>
    <g clip-path="url(#p6e055bdec9)">
     <use xlink:href="#m67da05c592" x="33.017141" y="67.135944" style="fill: #0f4d92; stroke: #0f4d92"/>
     <use xlink:href="#m67da05c592" x="77.041406" y="39.786702" style="fill: #0f4d92; stroke: #0f4d92"/>
     <use xlink:href="#m67da05c592" x="121.065671" y="23.181806" style="fill: #0f4d92; stroke: #0f4d92"/>
     <use xlink:href="#m67da05c592" x="165.089937" y="16.954969" style="fill: #0f4d92; stroke: #0f4d92"/>
     <use xlink:href="#m67da05c592" x="209.114202" y="16.954969" style="fill: #0f4d92; stroke: #0f4d92"/>
    </g>
   </g>
   <g id="line2d_17">
    <path d="M 33.017141 169.207223 
L 77.041406 169.207223 
L 121.065671 169.207223 
L 165.089937 169.207223 
L 209.114202 169.207223 
" clip-path="url(#p6e055bdec9)" style="fill: none; stroke: #3a9d72; stroke-width: 1.2; stroke-linecap: square"/>
    <defs>
     <path id="mbf351e6bc5" d="M 0 1.5 
C 0.397805 1.5 0.77937 1.341951 1.06066 1.06066 
C 1.341951 0.77937 1.5 0.397805 1.5 0 
C 1.5 -0.397805 1.341951 -0.77937 1.06066 -1.06066 
C 0.77937 -1.341951 0.397805 -1.5 0 -1.5 
C -0.397805 -1.5 -0.77937 -1.341951 -1.06066 -1.06066 
C -1.341951 -0.77937 -1.5 -0.397805 -1.5 0 
C -1.5 0.397805 -1.341951 0.77937 -1.06066 1.06066 
C -0.77937 1.341951 -0.397805 1.5 0 1.5 
z
" style="stroke: #3a9d72"/>
    </defs>
    <g clip-path="url(#p6e055bdec9)">
     <use xlink:href="#mbf351e6bc5" x="33.017141" y="169.207223" style="fill: #3a9d72; stroke: #3a9d72"/>
     <use xlink:href="#mbf351e6bc5" x="77.041406" y="169.207223" style="fill: #3a9d72; stroke: #3a9d72"/>
     <use xlink:href="#mbf351e6bc5" x="121.065671" y="169.207223" style="fill: #3a9d72; stroke: #3a9d72"/>
     <use xlink:href="#mbf351e6bc5" x="165.089937" y="169.207223" style="fill: #3a9d72; stroke: #3a9d72"/>
     <use xlink:href="#mbf351e6bc5" x="209.114202" y="169.207223" style="fill: #3a9d72; stroke: #3a9d72"/>
    </g>
   </g>
   <g id="line2d_18">
    <path d="M 33.017141 119.026247 
L 77.041406 146.375489 
L 121.065671 162.980386 
L 165.089937 169.207223 
L 209.114202 169.207223 
" clip-path="url(#p6e055bdec9)" style="fill: none; stroke: #e28e2c; stroke-width: 1.2; stroke-linecap: square"/>
    <defs>
     <path id="mf9266553d2" d="M 0 1.5 
C 0.397805 1.5 0.77937 1.341951 1.06066 1.06066 
C 1.341951 0.77937 1.5 0.397805 1.5 0 
C 1.5 -0.397805 1.341951 -0.77937 1.06066 -1.06066 
C 0.77937 -1.341951 0.397805 -1.5 0 -1.5 
C -0.397805 -1.5 -0.77937 -1.341951 -1.06066 -1.06066 
C -1.341951 -0.77937 -1.5 -0.397805 -1.5 0 
C -1.5 0.397805 -1.341951 0.77937 -1.06066 1.06066 
C -0.77937 1.341951 -0.397805 1.5 0 1.5 
z
" style="stroke: #e28e2c"/>
    </defs>
    <g clip-path="url(#p6e055bdec9)">
     <use xlink:href="#mf9266553d2" x="33.017141" y="119.026247" style="fill: #e28e2c; stroke: #e28e2c"/>
     <use xlink:href="#mf9266553d2" x="77.041406" y="146.375489" style="fill: #e28e2c; stroke: #e28e2c"/>
     <use xlink:href="#mf9266553d2" x="121.065671" y="162.980386" style="fill: #e28e2c; stroke: #e28e2c"/>
     <use xlink:href="#mf9266553d2" x="165.089937" y="169.207223" style="fill: #e28e2c; stroke: #e28e2c"/>
     <use xlink:href="#mf9266553d2" x="209.114202" y="169.207223" style="fill: #e28e2c; stroke: #e28e2c"/>
    </g>
   </g>
   <g id="patch_3">
    <path d="M 24.212287 173.77479 
L 24.212287 12.387402 
" style="fill: none; stroke: #000000; stroke-width: 0.55; stroke-linejoin: miter; stroke-linecap: square"/>
   </g>
   <g id="patch_4">
    <path d="M 24.212287 173.77479 
L 217.919055 173.77479 
" style="fill: none; stroke: #000000; stroke-width: 0.55; stroke-linejoin: miter; stroke-linecap: square"/>
   </g>
   <g id="text_18">
    <text style="font: 700 7px 'Microsoft YaHei', 'Arial', 'DejaVu Sans', sans-serif; text-anchor: middle" x="121.065671" y="6.387402" transform="rotate(-0 121.065671 6.387402)">几何聚合（诊断）</text>
   </g>
  </g>
 </g>
 <defs>
  <clipPath id="p6e055bdec9">
   <rect x="24.212287" y="12.387402" width="193.706768" height="161.387389"/>
  </clipPath>
 </defs>
</svg>
