<?xml version="1.0" encoding="utf-8" standalone="no"?>
<!DOCTYPE svg PUBLIC "-//W3C//DTD SVG 1.1//EN"
  "http://www.w3.org/Graphics/SVG/1.1/DTD/svg11.dtd">
<svg xmlns:xlink="http://www.w3.org/1999/xlink" width="504.962044pt" height="205.395389pt" viewBox="0 0 504.962044 205.395389" xmlns="http://www.w3.org/2000/svg" version="1.1">
 <metadata>
  <rdf:RDF xmlns:dc="http://purl.org/dc/elements/1.1/" xmlns:cc="http://creativecommons.org/ns#" xmlns:rdf="http://www.w3.org/1999/02/22-rdf-syntax-ns#">
   <cc:Work>
    <dc:type rdf:resource="http://purl.org/dc/dcmitype/StillImage"/>
    <dc:date>2026-08-09T02:30:23.053984</dc:date>
    <dc:format>image/svg+xml</dc:format>
    <dc:creator>
     <cc:Agent>
      <dc:title>Matplotlib v3.10.6, https://matplotlib.org/</dc:title>
     </cc:Agent>
    </dc:creator>
   </cc:Work>
  </rdf:RDF>
 </metadata>
 <defs>
  <style type="text/css">*{stroke-linejoin: round; stroke-linecap: butt}</style>
 </defs>
 <g id="figure_1">
  <g id="patch_1">
   <path d="M 0 205.395389 
L 504.962044 205.395389 
L 504.962044 0 
L 0 0 
z
" style="fill: #ffffff"/>
  </g>
  <g id="axes_1">
   <g id="patch_2">
    <path d="M 29.8 176.612889 
L 237.619465 176.612889 
L 237.619465 10.46728 
L 29.8 10.46728 
z
" style="fill: #ffffff"/>
   </g>
   <g id="matplotlib.axis_1">
    <g id="xtick_1">
     <g id="line2d_1">
      <path d="M 76.917316 176.612889 
L 76.917316 10.46728 
" clip-path="url(#p4e743ec9a2)" style="fill: none; stroke: #e5e7eb; stroke-width: 0.45; stroke-linecap: square"/>
     </g>
     <g id="line2d_2">
      <defs>
       <path id="mc53590da2a" d="M 0 0 
L 0 3 
" style="stroke: #000000; stroke-width: 0.6"/>
      </defs>
      <g>
       <use xlink:href="#mc53590da2a" x="76.917316" y="176.612889" style="stroke: #000000; stroke-width: 0.6"/>
      </g>
     </g>
     <g id="text_1">
      <!-- $\mathdefault{10^{0}}$ -->
      <g transform="translate(71.422316 190.331639)">
       <text>
        <tspan x="0" y="-0.599563" style="font-size: 7px; font-family: 'Arial'">1</tspan>
        <tspan x="3.893066" y="-0.599563" style="font-size: 7px; font-family: 'Arial'">0</tspan>
        <tspan x="7.908097" y="-5.478125" style="font-size: 4.9px; font-family: 'Arial'">0</tspan>
       </text>
      </g>
     </g>
    </g>
    <g id="xtick_2">
     <g id="line2d_3">
      <path d="M 142.062527 176.612889 
L 142.062527 10.46728 
" clip-path="url(#p4e743ec9a2)" style="fill: none; stroke: #e5e7eb; stroke-width: 0.45; stroke-linecap: square"/>
     </g>
     <g id="line2d_4">
      <g>
       <use xlink:href="#mc53590da2a" x="142.062527" y="176.612889" style="stroke: #000000; stroke-width: 0.6"/>
      </g>
     </g>
     <g id="text_2">
      <!-- $\mathdefault{10^{1}}$ -->
      <g transform="translate(136.567527 190.331639)">
       <text>
        <tspan x="0" y="-0.599563" style="font-size: 7px; font-family: 'Arial'">1</tspan>
        <tspan x="3.893066" y="-0.599563" style="font-size: 7px; font-family: 'Arial'">0</tspan>
        <tspan x="7.908097" y="-5.478125" style="font-size: 4.9px; font-family: 'Arial'">1</tspan>
       </text>
      </g>
     </g>
    </g>
    <g id="xtick_3">
     <g id="line2d_5">
      <path d="M 207.207739 176.612889 
L 207.207739 10.46728 
" clip-path="url(#p4e743ec9a2)" style="fill: none; stroke: #e5e7eb; stroke-width: 0.45; stroke-linecap: square"/>
     </g>
     <g id="line2d_6">
      <g>
       <use xlink:href="#mc53590da2a" x="207.207739" y="176.612889" style="stroke: #000000; stroke-width: 0.6"/>
      </g>
     </g>
     <g id="text_3">
      <!-- $\mathdefault{10^{2}}$ -->
      <g transform="translate(201.712739 190.331639)">
       <text>
        <tspan x="0" y="-0.599563" style="font-size: 7px; font-family: 'Arial'">1</tspan>
        <tspan x="3.893066" y="-0.599563" style="font-size: 7px; font-family: 'Arial'">0</tspan>
        <tspan x="7.908097" y="-5.478125" style="font-size: 4.9px; font-family: 'Arial'">2</tspan>
       </text>
      </g>
     </g>
    </g>
    <g id="xtick_4">
     <g id="line2d_7">
      <defs>
       <path id="ma2f6cf3b21" d="M 0 0 
L 0 2 
" style="stroke: #000000; stroke-width: 0.6"/>
      </defs>
      <g>
       <use xlink:href="#ma2f6cf3b21" x="31.382767" y="176.612889" style="stroke: #000000; stroke-width: 0.6"/>
      </g>
     </g>
    </g>
    <g id="xtick_5">
     <g id="line2d_8">
      <g>
       <use xlink:href="#ma2f6cf3b21" x="42.854269" y="176.612889" style="stroke: #000000; stroke-width: 0.6"/>
      </g>
     </g>
    </g>
    <g id="xtick_6">
     <g id="line2d_9">
      <g>
       <use xlink:href="#ma2f6cf3b21" x="50.993429" y="176.612889" style="stroke: #000000; stroke-width: 0.6"/>
      </g>
     </g>
    </g>
    <g id="xtick_7">
     <g id="line2d_10">
      <g>
       <use xlink:href="#ma2f6cf3b21" x="57.306653" y="176.612889" style="stroke: #000000; stroke-width: 0.6"/>
      </g>
     </g>
    </g>
    <g id="xtick_8">
     <g id="line2d_11">
      <g>
       <use xlink:href="#ma2f6cf3b21" x="62.464932" y="176.612889" style="stroke: #000000; stroke-width: 0.6"/>
      </g>
     </g>
    </g>
    <g id="xtick_9">
     <g id="line2d_12">
      <g>
       <use xlink:href="#ma2f6cf3b21" x="66.826195" y="176.612889" style="stroke: #000000; stroke-width: 0.6"/>
      </g>
     </g>
    </g>
    <g id="xtick_10">
     <g id="line2d_13">
      <g>
       <use xlink:href="#ma2f6cf3b21" x="70.604092" y="176.612889" style="stroke: #000000; stroke-width: 0.6"/>
      </g>
     </g>
    </g>
    <g id="xtick_11">
     <g id="line2d_14">
      <g>
       <use xlink:href="#ma2f6cf3b21" x="73.936434" y="176.612889" style="stroke: #000000; stroke-width: 0.6"/>
      </g>
     </g>
    </g>
    <g id="xtick_12">
     <g id="line2d_15">
      <g>
       <use xlink:href="#ma2f6cf3b21" x="96.527978" y="176.612889" style="stroke: #000000; stroke-width: 0.6"/>
      </g>
     </g>
    </g>
    <g id="xtick_13">
     <g id="line2d_16">
      <g>
       <use xlink:href="#ma2f6cf3b21" x="107.999481" y="176.612889" style="stroke: #000000; stroke-width: 0.6"/>
      </g>
     </g>
    </g>
    <g id="xtick_14">
     <g id="line2d_17">
      <g>
       <use xlink:href="#ma2f6cf3b21" x="116.138641" y="176.612889" style="stroke: #000000; stroke-width: 0.6"/>
      </g>
     </g>
    </g>
    <g id="xtick_15">
     <g id="line2d_18">
      <g>
       <use xlink:href="#ma2f6cf3b21" x="122.451865" y="176.612889" style="stroke: #000000; stroke-width: 0.6"/>
      </g>
     </g>
    </g>
    <g id="xtick_16">
     <g id="line2d_19">
      <g>
       <use xlink:href="#ma2f6cf3b21" x="127.610144" y="176.612889" style="stroke: #000000; stroke-width: 0.6"/>
      </g>
     </g>
    </g>
    <g id="xtick_17">
     <g id="line2d_20">
      <g>
       <use xlink:href="#ma2f6cf3b21" x="131.971406" y="176.612889" style="stroke: #000000; stroke-width: 0.6"/>
      </g>
     </g>
    </g>
    <g id="xtick_18">
     <g id="line2d_21">
      <g>
       <use xlink:href="#ma2f6cf3b21" x="135.749304" y="176.612889" style="stroke: #000000; stroke-width: 0.6"/>
      </g>
     </g>
    </g>
    <g id="xtick_19">
     <g id="line2d_22">
      <g>
       <use xlink:href="#ma2f6cf3b21" x="139.081646" y="176.612889" style="stroke: #000000; stroke-width: 0.6"/>
      </g>
     </g>
    </g>
    <g id="xtick_20">
     <g id="line2d_23">
      <g>
       <use xlink:href="#ma2f6cf3b21" x="161.67319" y="176.612889" style="stroke: #000000; stroke-width: 0.6"/>
      </g>
     </g>
    </g>
    <g id="xtick_21">
     <g id="line2d_24">
      <g>
       <use xlink:href="#ma2f6cf3b21" x="173.144693" y="176.612889" style="stroke: #000000; stroke-width: 0.6"/>
      </g>
     </g>
    </g>
    <g id="xtick_22">
     <g id="line2d_25">
      <g>
       <use xlink:href="#ma2f6cf3b21" x="181.283853" y="176.612889" style="stroke: #000000; stroke-width: 0.6"/>
      </g>
     </g>
    </g>
    <g id="xtick_23">
     <g id="line2d_26">
      <g>
       <use xlink:href="#ma2f6cf3b21" x="187.597077" y="176.612889" style="stroke: #000000; stroke-width: 0.6"/>
      </g>
     </g>
    </g>
    <g id="xtick_24">
     <g id="line2d_27">
      <g>
       <use xlink:href="#ma2f6cf3b21" x="192.755356" y="176.612889" style="stroke: #000000; stroke-width: 0.6"/>
      </g>
     </g>
    </g>
    <g id="xtick_25">
     <g id="line2d_28">
      <g>
       <use xlink:href="#ma2f6cf3b21" x="197.116618" y="176.612889" style="stroke: #000000; stroke-width: 0.6"/>
      </g>
     </g>
    </g>
    <g id="xtick_26">
     <g id="line2d_29">
      <g>
       <use xlink:href="#ma2f6cf3b21" x="200.894516" y="176.612889" style="stroke: #000000; stroke-width: 0.6"/>
      </g>
     </g>
    </g>
    <g id="xtick_27">
     <g id="line2d_30">
      <g>
       <use xlink:href="#ma2f6cf3b21" x="204.226858" y="176.612889" style="stroke: #000000; stroke-width: 0.6"/>
      </g>
     </g>
    </g>
    <g id="xtick_28">
     <g id="line2d_31">
      <g>
       <use xlink:href="#ma2f6cf3b21" x="226.818402" y="176.612889" style="stroke: #000000; stroke-width: 0.6"/>
      </g>
     </g>
    </g>
    <g id="text_4">
     <text style="font-size: 8px; font-family: 'Arial'; text-anchor: middle" x="133.709733" y="201.551639" transform="rotate(-0 133.709733 201.551639)">Online planning time (s, log scale)</text>
    </g>
   </g>
   <g id="matplotlib.axis_2">
    <g id="ytick_1">
     <g id="line2d_32">
      <path d="M 29.8 169.481544 
L 237.619465 169.481544 
" clip-path="url(#p4e743ec9a2)" style="fill: none; stroke: #e5e7eb; stroke-width: 0.45; stroke-linecap: square"/>
     </g>
     <g id="line2d_33">
      <defs>
       <path id="m94b13d7d4d" d="M 0 0 
L -3 0 
" style="stroke: #000000; stroke-width: 0.6"/>
      </defs>
      <g>
       <use xlink:href="#m94b13d7d4d" x="29.8" y="169.481544" style="stroke: #000000; stroke-width: 0.6"/>
      </g>
     </g>
     <g id="text_5">
      <text style="font-size: 7px; font-family: 'Arial'; text-anchor: end" x="23.3" y="171.986779" transform="rotate(-0 23.3 171.986779)">0.0</text>
     </g>
    </g>
    <g id="ytick_2">
     <g id="line2d_34">
      <path d="M 29.8 139.189106 
L 237.619465 139.189106 
" clip-path="url(#p4e743ec9a2)" style="fill: none; stroke: #e5e7eb; stroke-width: 0.45; stroke-linecap: square"/>
     </g>
     <g id="line2d_35">
      <g>
       <use xlink:href="#m94b13d7d4d" x="29.8" y="139.189106" style="stroke: #000000; stroke-width: 0.6"/>
      </g>
     </g>
     <g id="text_6">
      <text style="font-size: 7px; font-family: 'Arial'; text-anchor: end" x="23.3" y="141.694341" transform="rotate(-0 23.3 141.694341)">0.2</text>
     </g>
    </g>
    <g id="ytick_3">
     <g id="line2d_36">
      <path d="M 29.8 108.896668 
L 237.619465 108.896668 
" clip-path="url(#p4e743ec9a2)" style="fill: none; stroke: #e5e7eb; stroke-width: 0.45; stroke-linecap: square"/>
     </g>
     <g id="line2d_37">
      <g>
       <use xlink:href="#m94b13d7d4d" x="29.8" y="108.896668" style="stroke: #000000; stroke-width: 0.6"/>
      </g>
     </g>
     <g id="text_7">
      <text style="font-size: 7px; font-family: 'Arial'; text-anchor: end" x="23.3" y="111.401902" transform="rotate(-0 23.3 111.401902)">0.4</text>
     </g>
    </g>
    <g id="ytick_4">
     <g id="line2d_38">
      <path d="M 29.8 78.60423 
L 237.619465 78.60423 
" clip-path="url(#p4e743ec9a2)" style="fill: none; stroke: #e5e7eb; stroke-width: 0.45; stroke-linecap: square"/>
     </g>
     <g id="line2d_39">
      <g>
       <use xlink:href="#m94b13d7d4d" x="29.8" y="78.60423" style="stroke: #000000; stroke-width: 0.6"/>
      </g>
     </g>
     <g id="text_8">
      <text style="font-size: 7px; font-family: 'Arial'; text-anchor: end" x="23.3" y="81.109464" transform="rotate(-0 23.3 81.109464)">0.6</text>
     </g>
    </g>
    <g id="ytick_5">
     <g id="line2d_40">
      <path d="M 29.8 48.311792 
L 237.619465 48.311792 
" clip-path="url(#p4e743ec9a2)" style="fill: none; stroke: #e5e7eb; stroke-width: 0.45; stroke-linecap: square"/>
     </g>
     <g id="line2d_41">
      <g>
       <use xlink:href="#m94b13d7d4d" x="29.8" y="48.311792" style="stroke: #000000; stroke-width: 0.6"/>
      </g>
     </g>
     <g id="text_9">
      <text style="font-size: 7px; font-family: 'Arial'; text-anchor: end" x="23.3" y="50.817026" transform="rotate(-0 23.3 50.817026)">0.8</text>
     </g>
    </g>
    <g id="ytick_6">
     <g id="line2d_42">
      <path d="M 29.8 18.019354 
L 237.619465 18.019354 
" clip-path="url(#p4e743ec9a2)" style="fill: none; stroke: #e5e7eb; stroke-width: 0.45; stroke-linecap: square"/>
     </g>
     <g id="line2d_43">
      <g>
       <use xlink:href="#m94b13d7d4d" x="29.8" y="18.019354" style="stroke: #000000; stroke-width: 0.6"/>
      </g>
     </g>
     <g id="text_10">
      <text style="font-size: 7px; font-family: 'Arial'; text-anchor: end" x="23.3" y="20.524588" transform="rotate(-0 23.3 20.524588)">1.0</text>
     </g>
    </g>
    <g id="text_11">
     <text style="font-size: 8px; font-family: 'Arial'; text-anchor: middle" x="7.88625" y="93.540085" transform="rotate(-90 7.88625 93.540085)">Empirical cumulative probability</text>
    </g>
   </g>
   <g id="line2d_44">
    <path d="M 49.838435 169.060816 
L 50.054995 169.060816 
L 50.054995 168.640088 
L 50.185536 168.640088 
L 50.185536 168.219359 
L 54.27274 168.219359 
L 54.27274 167.798631 
L 54.549035 167.798631 
L 54.549035 167.377903 
L 55.364491 167.377903 
L 55.364491 166.957175 
L 56.288491 166.957175 
L 56.288491 166.536446 
L 56.959929 166.536446 
L 56.959929 166.115718 
L 57.721563 166.115718 
L 57.721563 165.69499 
L 58.46019 165.69499 
L 58.46019 165.274261 
L 59.391022 165.274261 
L 59.415453 164.432805 
L 59.700191 164.432805 
L 59.700191 164.012076 
L 59.829319 164.012076 
L 59.92186 163.17062 
L 59.98423 163.17062 
L 59.98423 162.749891 
L 60.154189 162.749891 
L 60.154189 162.329163 
L 60.673785 162.329163 
L 60.726103 161.487707 
L 60.820038 161.487707 
L 60.896689 160.64625 
L 61.081632 160.64625 
L 61.081632 160.225522 
L 61.708724 160.225522 
L 61.708724 159.804793 
L 61.980472 159.804793 
L 61.980472 159.384065 
L 62.132402 159.384065 
L 62.132402 158.963337 
L 62.29712 158.963337 
L 62.29712 158.542608 
L 62.650352 158.542608 
L 62.696238 157.701152 
L 62.84803 157.701152 
L 62.924799 156.438967 
L 62.960914 156.438967 
L 62.960914 156.018239 
L 63.141413 156.018239 
L 63.170399 155.176782 
L 63.345695 155.176782 
L 63.345695 154.756054 
L 63.937617 154.756054 
L 63.937617 154.335325 
L 64.10856 154.335325 
L 64.170652 153.07314 
L 64.284995 153.07314 
L 64.363318 152.231684 
L 64.473723 152.231684 
L 64.541197 150.969499 
L 64.66063 150.969499 
L 64.66063 150.548771 
L 64.842159 150.548771 
L 64.929226 148.865857 
L 65.000565 148.865857 
L 65.000565 148.445129 
L 65.149518 148.445129 
L 65.165176 147.603672 
L 65.343854 147.603672 
L 65.405241 146.341487 
L 65.757686 146.341487 
L 65.757686 145.920759 
L 65.953273 145.920759 
L 66.010268 144.237846 
L 66.138448 144.237846 
L 66.220991 142.554933 
L 66.279928 142.554933 
L 66.279928 142.134204 
L 66.772135 142.134204 
L 66.781662 141.292748 
L 67.071538 141.292748 
L 67.148114 140.451291 
L 67.305995 140.451291 
L 67.319407 139.609835 
L 67.609549 139.609835 
L 67.673615 138.34765 
L 67.806747 138.34765 
L 67.890386 137.506193 
L 68.003123 137.506193 
L 68.034327 136.664736 
L 68.130551 136.664736 
L 68.15053 135.402551 
L 68.416182 135.402551 
L 68.460276 134.561095 
L 68.628483 134.561095 
L 68.628483 134.140367 
L 68.942095 134.140367 
L 69.039367 133.29891 
L 69.073008 133.29891 
L 69.073008 132.878182 
L 69.532458 132.878182 
L 69.620921 131.615997 
L 69.725008 131.615997 
L 69.727359 130.353812 
L 69.899073 130.353812 
L 69.899073 129.933083 
L 70.067897 129.933083 
L 70.067897 129.512355 
L 70.316225 129.512355 
L 70.362082 128.25017 
L 70.634999 128.25017 
L 70.684584 126.987985 
L 70.842335 126.987985 
L 70.9151 126.146529 
L 71.145197 126.146529 
L 71.145197 125.7258 
L 71.390577 125.7258 
L 71.390577 125.305072 
L 71.523997 125.305072 
L 71.561859 124.042887 
L 71.671342 124.042887 
L 71.671342 123.622159 
L 71.787093 123.622159 
L 71.797858 122.780702 
L 71.975709 122.780702 
L 72.050341 121.939246 
L 72.197009 121.939246 
L 72.197009 121.518517 
L 72.557246 121.518517 
L 72.663163 118.152691 
L 72.843068 118.152691 
L 72.843068 117.731963 
L 73.124018 117.731963 
L 73.124018 117.311234 
L 73.328149 117.311234 
L 73.420232 116.049049 
L 73.499054 116.049049 
L 73.527958 115.207593 
L 73.708007 115.207593 
L 73.756413 113.945408 
L 73.843724 113.945408 
L 73.843724 113.524679 
L 73.991241 113.524679 
L 74.055584 112.683223 
L 74.197384 112.683223 
L 74.248747 111.421038 
L 74.48434 111.421038 
L 74.48434 111.00031 
L 74.595994 111.00031 
L 74.649407 110.158853 
L 74.720304 110.158853 
L 74.755466 109.317396 
L 75.067358 109.317396 
L 75.067358 108.896668 
L 75.236588 108.896668 
L 75.236588 108.47594 
L 75.397249 108.47594 
L 75.397249 108.055211 
L 75.5837 108.055211 
L 75.684758 107.213755 
L 75.793091 107.213755 
L 75.855684 106.372298 
L 76.123487 106.372298 
L 76.174199 105.530842 
L 76.293668 105.530842 
L 76.398714 104.268657 
L 76.54813 104.268657 
L 76.572504 103.4272 
L 76.764408 103.4272 
L 76.777721 102.165015 
L 76.90819 102.165015 
L 76.946164 101.323559 
L 77.049022 101.323559 
L 77.049022 100.90283 
L 77.192783 100.90283 
L 77.281516 100.061374 
L 77.358864 100.061374 
L 77.358864 99.640645 
L 77.518056 99.640645 
L 77.602966 98.799189 
L 77.742661 98.799189 
L 77.742661 98.37846 
L 77.902726 98.37846 
L 77.942145 97.116275 
L 78.34121 97.116275 
L 78.446084 96.274819 
L 78.462952 96.274819 
L 78.515771 94.591906 
L 78.584731 94.591906 
L 78.584731 94.171177 
L 78.72237 94.171177 
L 78.766661 93.329721 
L 79.061722 93.329721 
L 79.156855 92.067536 
L 79.223037 92.067536 
L 79.309971 91.226079 
L 79.622946 91.226079 
L 79.708397 90.384623 
L 79.79858 90.384623 
L 79.88102 89.543166 
L 79.944655 89.543166 
L 79.944655 89.122438 
L 80.231265 89.122438 
L 80.330422 88.280981 
L 80.349507 88.280981 
L 80.349507 87.860253 
L 80.53864 87.860253 
L 80.610484 87.018796 
L 80.855534 87.018796 
L 80.855534 86.598068 
L 80.969576 86.598068 
L 80.985948 85.756611 
L 81.230671 85.756611 
L 81.286412 84.494426 
L 81.371213 84.494426 
L 81.459682 83.65297 
L 81.549975 83.65297 
L 81.655511 82.811513 
L 81.692773 82.811513 
L 81.692773 82.390785 
L 81.915841 82.390785 
L 81.915841 81.970056 
L 82.073756 81.970056 
L 82.073756 81.549328 
L 82.186696 81.549328 
L 82.249908 80.707871 
L 82.743543 80.707871 
L 82.837384 77.762773 
L 82.900863 77.762773 
L 82.916959 76.500588 
L 83.05079 76.500588 
L 83.137053 74.817675 
L 83.167571 74.817675 
L 83.220969 73.976219 
L 83.363444 73.976219 
L 83.363444 73.55549 
L 83.499422 73.55549 
L 83.499422 73.134762 
L 83.923664 73.134762 
L 83.985938 72.293305 
L 84.05817 72.293305 
L 84.077246 71.451849 
L 84.257499 71.451849 
L 84.364008 70.189664 
L 84.368638 70.189664 
L 84.368638 69.768935 
L 84.484407 69.768935 
L 84.484407 69.348207 
L 84.599055 69.348207 
L 84.703851 68.086022 
L 84.817676 68.086022 
L 84.923313 66.823837 
L 84.928787 66.823837 
L 84.935743 65.982381 
L 85.395982 65.982381 
L 85.395982 65.561652 
L 85.522547 65.561652 
L 85.573177 64.299467 
L 85.77865 64.299467 
L 85.830992 63.458011 
L 85.897653 63.458011 
L 85.964192 62.616554 
L 86.040925 62.616554 
L 86.137015 60.933641 
L 86.157281 60.933641 
L 86.249802 60.092184 
L 86.531303 60.092184 
L 86.531303 59.671456 
L 86.753838 59.671456 
L 86.785415 58.829999 
L 86.894506 58.829999 
L 86.894506 58.409271 
L 87.038325 58.409271 
L 87.119696 57.567814 
L 87.170724 57.567814 
L 87.227398 56.30563 
L 87.465117 56.30563 
L 87.503347 55.464173 
L 87.837518 55.464173 
L 87.858016 54.622716 
L 88.03378 54.622716 
L 88.141353 53.360531 
L 88.179232 53.360531 
L 88.179232 52.939803 
L 88.456223 52.939803 
L 88.456223 52.519075 
L 88.855037 52.519075 
L 88.93952 51.25689 
L 89.093058 51.25689 
L 89.177093 49.573977 
L 89.222083 49.573977 
L 89.331664 47.891063 
L 89.339864 47.891063 
L 89.414655 47.049607 
L 89.712662 47.049607 
L 89.712662 46.628878 
L 89.9969 46.628878 
L 90.083593 45.366694 
L 90.470668 45.366694 
L 90.495814 44.525237 
L 90.696439 44.525237 
L 90.713055 43.263052 
L 90.936831 43.263052 
L 90.986667 42.000867 
L 91.053232 42.000867 
L 91.161132 41.15941 
L 91.340734 41.15941 
L 91.340734 40.738682 
L 91.809943 40.738682 
L 91.882283 39.897226 
L 92.060681 39.897226 
L 92.060681 39.476497 
L 92.417475 39.476497 
L 92.417475 39.055769 
L 92.650815 39.055769 
L 92.696531 38.214312 
L 92.829396 38.214312 
L 92.830382 37.372856 
L 93.220136 37.372856 
L 93.220136 36.952127 
L 93.518772 36.952127 
L 93.553899 36.110671 
L 93.827119 36.110671 
L 93.916417 34.848486 
L 94.019405 34.848486 
L 94.109591 33.165573 
L 94.345435 33.165573 
L 94.345435 32.744844 
L 94.555909 32.744844 
L 94.656552 31.482659 
L 94.764935 31.482659 
L 94.858567 30.641203 
L 95.404576 30.641203 
L 95.489317 29.379018 
L 95.795002 29.379018 
L 95.841942 28.537561 
L 95.971726 28.537561 
L 95.971726 28.116833 
L 96.122951 28.116833 
L 96.134094 27.275376 
L 96.280567 27.275376 
L 96.349938 26.43392 
L 96.710261 26.43392 
L 96.725239 25.592463 
L 96.852552 25.592463 
L 96.852552 25.171735 
L 97.070809 25.171735 
L 97.133916 23.90955 
L 97.344431 23.90955 
L 97.344431 23.488822 
L 97.695909 23.488822 
L 97.803634 22.647365 
L 98.190781 22.647365 
L 98.190781 22.226637 
L 98.431821 22.226637 
L 98.431821 21.805908 
L 99.106579 21.805908 
L 99.181203 20.964452 
L 99.790739 20.964452 
L 99.790739 20.543723 
L 102.152078 20.543723 
L 102.152078 20.122995 
L 102.732899 20.122995 
L 102.748294 19.281538 
L 103.405243 19.281538 
L 103.405243 18.86081 
L 105.40511 18.86081 
L 105.40511 18.440082 
L 106.873922 18.440082 
L 106.873922 18.019354 
L 106.873922 18.019354 
" clip-path="url(#p4e743ec9a2)" style="fill: none; stroke: #f28e2b; stroke-width: 1.4; stroke-linecap: square"/>
   </g>
   <g id="line2d_45">
    <path d="M 153.099506 169.060816 
L 154.847853 169.060816 
L 154.847853 168.640088 
L 155.932978 168.640088 
L 155.932978 168.219359 
L 157.208132 168.219359 
L 157.208132 167.798631 
L 157.74601 167.798631 
L 157.74601 167.377903 
L 158.138068 167.377903 
L 158.138068 166.957175 
L 159.127766 166.957175 
L 159.127766 166.536446 
L 160.811662 166.536446 
L 160.811662 166.115718 
L 161.482473 166.115718 
L 161.482473 165.69499 
L 161.640051 165.69499 
L 161.640051 165.274261 
L 162.179913 165.274261 
L 162.179913 164.853533 
L 163.010103 164.853533 
L 163.010103 164.432805 
L 163.473276 164.432805 
L 163.473276 164.012076 
L 163.628333 164.012076 
L 163.628333 163.591348 
L 163.901961 163.591348 
L 163.901961 163.17062 
L 164.133999 163.17062 
L 164.133999 162.749891 
L 164.257544 162.749891 
L 164.257544 162.329163 
L 164.817358 162.329163 
L 164.825055 161.487707 
L 165.111405 161.487707 
L 165.111405 161.066978 
L 165.280847 161.066978 
L 165.364334 160.225522 
L 166.895511 160.225522 
L 166.895511 159.804793 
L 167.207397 159.804793 
L 167.241208 158.963337 
L 167.419478 158.963337 
L 167.477936 157.701152 
L 168.271667 157.701152 
L 168.283079 156.859695 
L 168.439696 156.859695 
L 168.439696 156.438967 
L 168.561384 156.438967 
L 168.561384 156.018239 
L 168.985571 156.018239 
L 169.046163 155.176782 
L 169.389186 155.176782 
L 169.445268 154.335325 
L 169.523211 154.335325 
L 169.523211 153.914597 
L 169.774507 153.914597 
L 169.774507 153.493869 
L 170.297302 153.493869 
L 170.297302 153.07314 
L 170.450211 153.07314 
L 170.450211 152.652412 
L 171.564467 152.652412 
L 171.564467 152.231684 
L 171.831566 152.231684 
L 171.831566 151.810955 
L 172.204744 151.810955 
L 172.279825 150.548771 
L 172.596981 150.548771 
L 172.6666 149.707314 
L 172.745749 149.707314 
L 172.745749 149.286586 
L 172.896675 149.286586 
L 172.896675 148.865857 
L 173.333271 148.865857 
L 173.333271 148.445129 
L 173.791523 148.445129 
L 173.791523 148.024401 
L 174.025167 148.024401 
L 174.025167 147.603672 
L 174.350972 147.603672 
L 174.43007 145.500031 
L 174.509552 145.500031 
L 174.509552 145.079303 
L 175.270444 145.079303 
L 175.270444 144.658574 
L 175.536701 144.658574 
L 175.554782 143.817118 
L 175.767261 143.817118 
L 175.842025 142.975661 
L 175.955259 142.975661 
L 175.955259 142.554933 
L 176.180559 142.554933 
L 176.281229 141.713476 
L 176.313655 141.713476 
L 176.355581 140.872019 
L 176.45659 140.872019 
L 176.45659 140.451291 
L 176.601285 140.451291 
L 176.601285 140.030563 
L 176.716914 140.030563 
L 176.716914 139.609835 
L 176.952404 139.609835 
L 177.009187 138.768378 
L 177.084804 138.768378 
L 177.084804 138.34765 
L 177.454681 138.34765 
L 177.454681 137.926921 
L 177.852187 137.926921 
L 177.943223 136.664736 
L 178.208857 136.664736 
L 178.271859 135.82328 
L 178.354469 135.82328 
L 178.354469 135.402551 
L 178.553267 135.402551 
L 178.656466 134.140367 
L 178.673816 134.140367 
L 178.707358 132.878182 
L 178.818341 132.878182 
L 178.889361 131.615997 
L 179.148343 131.615997 
L 179.148343 131.195268 
L 179.426792 131.195268 
L 179.502535 129.933083 
L 180.02299 129.933083 
L 180.02299 129.512355 
L 180.593397 129.512355 
L 180.596484 128.670899 
L 180.944521 128.670899 
L 180.984786 127.829442 
L 181.087442 127.829442 
L 181.197897 126.987985 
L 181.254314 126.987985 
L 181.254314 126.567257 
L 181.425624 126.567257 
L 181.425624 126.146529 
L 181.664706 126.146529 
L 181.723758 125.305072 
L 181.870698 125.305072 
L 181.870698 124.884344 
L 182.028234 124.884344 
L 182.028234 124.463615 
L 182.348189 124.463615 
L 182.451296 123.201431 
L 182.460539 123.201431 
L 182.460539 122.780702 
L 182.726842 122.780702 
L 182.726842 122.359974 
L 182.852151 122.359974 
L 182.956107 121.097789 
L 183.122122 121.097789 
L 183.14166 120.256332 
L 183.249507 120.256332 
L 183.352951 118.994147 
L 183.461126 118.994147 
L 183.461161 118.152691 
L 183.638359 118.152691 
L 183.638359 117.731963 
L 183.846875 117.731963 
L 183.846875 117.311234 
L 184.032273 117.311234 
L 184.140248 116.469778 
L 184.18747 116.469778 
L 184.270501 115.628321 
L 184.412535 115.628321 
L 184.451881 114.786864 
L 184.653109 114.786864 
L 184.653109 114.366136 
L 184.794897 114.366136 
L 184.794897 113.945408 
L 184.956366 113.945408 
L 184.972508 113.103951 
L 185.157454 113.103951 
L 185.213365 111.841766 
L 185.314487 111.841766 
L 185.399473 110.158853 
L 185.646181 110.158853 
L 185.646181 109.738125 
L 185.858768 109.738125 
L 185.951377 108.47594 
L 186.017365 108.47594 
L 186.022328 107.634483 
L 186.461981 107.634483 
L 186.569787 106.372298 
L 186.773426 106.372298 
L 186.847069 105.110113 
L 186.937555 105.110113 
L 186.937555 104.689385 
L 187.075147 104.689385 
L 187.075147 104.268657 
L 187.221047 104.268657 
L 187.287254 103.4272 
L 187.455076 103.4272 
L 187.56328 102.585743 
L 187.602387 102.585743 
L 187.659643 101.744287 
L 187.834832 101.744287 
L 187.834832 101.323559 
L 188.100529 101.323559 
L 188.100529 100.90283 
L 188.231438 100.90283 
L 188.231438 100.482102 
L 188.612137 100.482102 
L 188.612137 100.061374 
L 188.769953 100.061374 
L 188.769953 99.640645 
L 189.084163 99.640645 
L 189.090566 98.799189 
L 189.20319 98.799189 
L 189.20319 98.37846 
L 189.411872 98.37846 
L 189.411872 97.957732 
L 189.809422 97.957732 
L 189.809422 97.537004 
L 190.271132 97.537004 
L 190.271132 97.116275 
L 190.402074 97.116275 
L 190.486971 95.433362 
L 190.748906 95.433362 
L 190.853948 94.591906 
L 190.952186 94.591906 
L 191.019381 93.750449 
L 191.122685 93.750449 
L 191.122685 93.329721 
L 191.291748 93.329721 
L 191.335934 92.067536 
L 191.515284 92.067536 
L 191.591854 91.226079 
L 191.646704 91.226079 
L 191.707278 90.384623 
L 191.988319 90.384623 
L 192.062681 88.280981 
L 192.236182 88.280981 
L 192.236182 87.860253 
L 192.451328 87.860253 
L 192.451328 87.439524 
L 192.589416 87.439524 
L 192.688719 86.177339 
L 192.787801 86.177339 
L 192.847787 85.335883 
L 192.905385 85.335883 
L 192.924142 84.494426 
L 193.068566 84.494426 
L 193.068566 84.073698 
L 193.726364 84.073698 
L 193.797235 82.390785 
L 193.960597 82.390785 
L 193.982272 81.1286 
L 194.136653 81.1286 
L 194.136653 80.707871 
L 194.303344 80.707871 
L 194.409214 79.024958 
L 194.620276 79.024958 
L 194.620276 78.60423 
L 194.889071 78.60423 
L 194.907879 77.342045 
L 195.082947 77.342045 
L 195.136864 76.500588 
L 195.248621 76.500588 
L 195.248621 76.07986 
L 195.613212 76.07986 
L 195.613212 75.659132 
L 195.727221 75.659132 
L 195.727221 75.238403 
L 195.932346 75.238403 
L 195.932346 74.817675 
L 196.059544 74.817675 
L 196.164053 73.976219 
L 196.281276 73.976219 
L 196.281276 73.55549 
L 196.465103 73.55549 
L 196.564739 72.293305 
L 196.580087 72.293305 
L 196.619275 71.451849 
L 197.447061 71.451849 
L 197.526322 70.189664 
L 197.595776 70.189664 
L 197.595776 69.768935 
L 197.859126 69.768935 
L 197.918373 68.506751 
L 198.032581 68.506751 
L 198.130201 66.823837 
L 198.25189 66.823837 
L 198.25189 66.403109 
L 198.383539 66.403109 
L 198.394718 65.561652 
L 198.606364 65.561652 
L 198.606364 65.140924 
L 198.767272 65.140924 
L 198.767272 64.720196 
L 198.88016 64.720196 
L 198.961192 63.878739 
L 199.084378 63.878739 
L 199.084378 63.458011 
L 199.198494 63.458011 
L 199.198494 63.037283 
L 199.330837 63.037283 
L 199.360708 62.195826 
L 199.871351 62.195826 
L 199.871351 61.775098 
L 200.219002 61.775098 
L 200.327224 60.933641 
L 200.442364 60.933641 
L 200.4621 60.092184 
L 200.640159 60.092184 
L 200.640159 59.671456 
L 200.773167 59.671456 
L 200.773167 59.250728 
L 200.910469 59.250728 
L 200.910469 58.829999 
L 201.041953 58.829999 
L 201.041953 58.409271 
L 201.15471 58.409271 
L 201.15471 57.988543 
L 201.439653 57.988543 
L 201.543382 56.726358 
L 201.577636 56.726358 
L 201.679789 55.884901 
L 201.807446 55.884901 
L 201.90648 55.043445 
L 202.088842 55.043445 
L 202.088842 54.622716 
L 202.313509 54.622716 
L 202.323332 53.78126 
L 202.532795 53.78126 
L 202.61375 51.677618 
L 202.683171 51.677618 
L 202.683171 51.25689 
L 202.949529 51.25689 
L 203.049802 50.415433 
L 203.220873 50.415433 
L 203.312769 49.153248 
L 203.361193 49.153248 
L 203.361193 48.73252 
L 203.642355 48.73252 
L 203.70495 47.049607 
L 203.814773 47.049607 
L 203.838759 46.20815 
L 204.006396 46.20815 
L 204.006873 45.366694 
L 204.524481 45.366694 
L 204.567483 44.525237 
L 204.695098 44.525237 
L 204.70441 43.68378 
L 205.168981 43.68378 
L 205.249338 42.842324 
L 205.444284 42.842324 
L 205.444284 42.421595 
L 205.591693 42.421595 
L 205.591693 42.000867 
L 206.174377 42.000867 
L 206.174377 41.580139 
L 206.323559 41.580139 
L 206.323559 41.15941 
L 206.466672 41.15941 
L 206.572954 40.317954 
L 206.642762 40.317954 
L 206.642762 39.897226 
L 206.772617 39.897226 
L 206.772617 39.476497 
L 207.135361 39.476497 
L 207.135361 39.055769 
L 207.491476 39.055769 
L 207.560747 38.214312 
L 207.629804 38.214312 
L 207.697965 36.952127 
L 208.435307 36.952127 
L 208.435307 36.531399 
L 208.708329 36.531399 
L 208.756406 35.269214 
L 209.34726 35.269214 
L 209.34726 34.848486 
L 210.148336 34.848486 
L 210.148336 34.427758 
L 210.709267 34.427758 
L 210.709267 34.007029 
L 210.844601 34.007029 
L 210.844601 33.586301 
L 210.987201 33.586301 
L 210.987201 33.165573 
L 211.435935 33.165573 
L 211.461091 32.324116 
L 211.562202 32.324116 
L 211.562202 31.903388 
L 211.868666 31.903388 
L 211.868666 31.482659 
L 212.134135 31.482659 
L 212.134135 31.061931 
L 213.422643 31.061931 
L 213.422643 30.641203 
L 213.744603 30.641203 
L 213.744603 30.220474 
L 213.887322 30.220474 
L 213.887322 29.799746 
L 214.174127 29.799746 
L 214.174127 29.379018 
L 214.546779 29.379018 
L 214.609866 28.537561 
L 215.012129 28.537561 
L 215.012129 28.116833 
L 215.160864 28.116833 
L 215.160864 27.696105 
L 215.275661 27.696105 
L 215.275661 27.275376 
L 215.712723 27.275376 
L 215.712723 26.854648 
L 216.003225 26.854648 
L 216.003225 26.43392 
L 216.339467 26.43392 
L 216.339467 26.013191 
L 216.523257 26.013191 
L 216.523257 25.592463 
L 216.657733 25.592463 
L 216.657733 25.171735 
L 217.243913 25.171735 
L 217.243913 24.751006 
L 217.815603 24.751006 
L 217.878605 23.90955 
L 218.545835 23.90955 
L 218.545835 23.488822 
L 218.826331 23.488822 
L 218.826331 23.068093 
L 219.474013 23.068093 
L 219.474013 22.647365 
L 220.298566 22.647365 
L 220.298566 22.226637 
L 220.522276 22.226637 
L 220.522276 21.805908 
L 221.767252 21.805908 
L 221.767252 21.38518 
L 222.320327 21.38518 
L 222.320327 20.964452 
L 222.94667 20.964452 
L 222.94667 20.543723 
L 224.065074 20.543723 
L 224.159238 19.702267 
L 224.310773 19.702267 
L 224.310773 19.281538 
L 225.568689 19.281538 
L 225.568689 18.86081 
L 227.548301 18.86081 
L 227.548301 18.440082 
L 228.173126 18.440082 
L 228.173126 18.019354 
L 228.173126 18.019354 
" clip-path="url(#p4e743ec9a2)" style="fill: none; stroke: #8e6c8a; stroke-width: 1.4; stroke-linecap: square"/>
   </g>
   <g id="line2d_46">
    <path d="M 50.130709 169.060816 
L 52.902866 169.060816 
L 52.902866 168.640088 
L 53.212899 168.640088 
L 53.212899 168.219359 
L 53.542252 168.219359 
L 53.542252 167.798631 
L 54.822869 167.798631 
L 54.822869 167.377903 
L 55.51481 167.377903 
L 55.51481 166.957175 
L 56.687821 166.957175 
L 56.687821 166.536446 
L 57.616548 166.536446 
L 57.703433 165.69499 
L 59.126846 165.69499 
L 59.126846 165.274261 
L 59.286744 165.274261 
L 59.286744 164.853533 
L 60.261646 164.853533 
L 60.31685 164.012076 
L 60.451803 164.012076 
L 60.523566 163.17062 
L 60.728258 163.17062 
L 60.728733 162.329163 
L 60.898414 162.329163 
L 60.898414 161.908435 
L 61.103633 161.908435 
L 61.103633 161.487707 
L 61.544782 161.487707 
L 61.644109 160.225522 
L 61.833538 160.225522 
L 61.833538 159.804793 
L 62.000994 159.804793 
L 62.000994 159.384065 
L 62.234572 159.384065 
L 62.333061 158.12188 
L 62.533976 158.12188 
L 62.578732 157.280423 
L 62.741886 157.280423 
L 62.741886 156.859695 
L 62.86618 156.859695 
L 62.86618 156.438967 
L 63.168896 156.438967 
L 63.21424 155.59751 
L 63.513482 155.59751 
L 63.554238 154.756054 
L 63.763666 154.756054 
L 63.766984 153.914597 
L 63.935229 153.914597 
L 63.935229 153.493869 
L 64.362642 153.493869 
L 64.362642 153.07314 
L 64.585997 153.07314 
L 64.678547 151.810955 
L 64.838422 151.810955 
L 64.838422 151.390227 
L 65.001701 151.390227 
L 65.001701 150.969499 
L 65.722845 150.969499 
L 65.812285 150.128042 
L 66.082147 150.128042 
L 66.082147 149.707314 
L 66.26885 149.707314 
L 66.326563 148.445129 
L 66.574608 148.445129 
L 66.603813 147.603672 
L 67.002478 147.603672 
L 67.002478 147.182944 
L 67.152977 147.182944 
L 67.239066 145.920759 
L 67.315263 145.920759 
L 67.418143 144.658574 
L 67.455121 144.658574 
L 67.455121 144.237846 
L 67.792308 144.237846 
L 67.847845 142.975661 
L 68.024715 142.975661 
L 68.129154 142.134204 
L 68.224181 142.134204 
L 68.224181 141.713476 
L 68.389155 141.713476 
L 68.444543 140.872019 
L 68.55241 140.872019 
L 68.55241 140.451291 
L 68.967664 140.451291 
L 69.059143 137.926921 
L 69.086596 137.926921 
L 69.086596 137.506193 
L 69.364321 137.506193 
L 69.367219 136.664736 
L 69.593121 136.664736 
L 69.595814 135.82328 
L 70.006584 135.82328 
L 70.006584 135.402551 
L 70.151573 135.402551 
L 70.236794 134.561095 
L 70.30716 134.561095 
L 70.335317 133.719638 
L 70.485601 133.719638 
L 70.485601 133.29891 
L 70.748536 133.29891 
L 70.856475 132.036725 
L 70.994045 132.036725 
L 71.071175 130.353812 
L 71.601534 130.353812 
L 71.693489 129.512355 
L 71.76676 129.512355 
L 71.812984 128.25017 
L 72.134367 128.25017 
L 72.134367 127.829442 
L 72.391718 127.829442 
L 72.481796 126.146529 
L 72.542557 126.146529 
L 72.542557 125.7258 
L 72.710008 125.7258 
L 72.710008 125.305072 
L 72.823839 125.305072 
L 72.915665 124.463615 
L 72.969929 124.463615 
L 72.983863 123.622159 
L 73.086439 123.622159 
L 73.086439 123.201431 
L 73.234695 123.201431 
L 73.324804 122.359974 
L 73.44501 122.359974 
L 73.537404 121.518517 
L 73.577228 121.518517 
L 73.683535 120.677061 
L 73.729121 120.677061 
L 73.729121 120.256332 
L 73.912961 120.256332 
L 74.014656 118.994147 
L 74.067694 118.994147 
L 74.161047 117.731963 
L 74.220217 117.731963 
L 74.321694 115.628321 
L 74.448917 115.628321 
L 74.525767 114.786864 
L 74.690459 114.786864 
L 74.772487 113.945408 
L 74.841169 113.945408 
L 74.880007 113.103951 
L 75.045234 113.103951 
L 75.156107 110.579581 
L 75.183028 110.579581 
L 75.183028 110.158853 
L 75.346386 110.158853 
L 75.450941 109.317396 
L 75.548301 109.317396 
L 75.644542 108.47594 
L 76.065242 108.47594 
L 76.065242 108.055211 
L 76.424644 108.055211 
L 76.483977 106.793027 
L 76.60526 106.793027 
L 76.708211 105.95157 
L 76.75624 105.95157 
L 76.843185 105.110113 
L 77.044439 105.110113 
L 77.132272 103.4272 
L 77.17934 103.4272 
L 77.224263 102.585743 
L 77.30546 102.585743 
L 77.30546 102.165015 
L 77.432356 102.165015 
L 77.465507 100.482102 
L 77.678441 100.482102 
L 77.778558 99.219917 
L 77.881808 99.219917 
L 77.976165 98.37846 
L 78.045189 98.37846 
L 78.074159 97.537004 
L 78.195221 97.537004 
L 78.289695 95.854091 
L 78.386024 95.854091 
L 78.386024 95.433362 
L 78.649452 95.433362 
L 78.725648 93.750449 
L 78.897189 93.750449 
L 78.98282 92.488264 
L 79.069012 92.488264 
L 79.069012 92.067536 
L 79.231051 92.067536 
L 79.231051 91.646807 
L 79.425067 91.646807 
L 79.510316 90.805351 
L 79.72298 90.805351 
L 79.758718 89.963894 
L 79.866845 89.963894 
L 79.866845 89.543166 
L 79.990151 89.543166 
L 80.028273 87.860253 
L 80.443275 87.860253 
L 80.443275 87.439524 
L 81.093562 87.439524 
L 81.093562 87.018796 
L 81.22702 87.018796 
L 81.249509 85.335883 
L 81.348841 85.335883 
L 81.39573 84.494426 
L 81.774893 84.494426 
L 81.812052 81.970056 
L 82.06364 81.970056 
L 82.093842 81.1286 
L 82.234822 81.1286 
L 82.250977 80.287143 
L 82.419043 80.287143 
L 82.483094 79.445687 
L 82.911725 79.445687 
L 82.911725 79.024958 
L 83.303204 79.024958 
L 83.380525 78.183502 
L 83.458145 78.183502 
L 83.511933 76.921317 
L 83.601222 76.921317 
L 83.708123 75.238403 
L 83.776011 75.238403 
L 83.776011 74.817675 
L 83.925917 74.817675 
L 84.002149 73.55549 
L 84.082406 73.55549 
L 84.082406 73.134762 
L 84.199405 73.134762 
L 84.283343 72.293305 
L 84.378272 72.293305 
L 84.415869 71.451849 
L 84.502261 71.451849 
L 84.567242 70.610392 
L 84.613872 70.610392 
L 84.613872 70.189664 
L 84.725982 70.189664 
L 84.803417 69.348207 
L 84.896503 69.348207 
L 84.970431 68.506751 
L 85.059793 68.506751 
L 85.059793 68.086022 
L 85.201798 68.086022 
L 85.210286 67.244566 
L 85.439905 67.244566 
L 85.458846 66.403109 
L 85.601033 66.403109 
L 85.601033 65.982381 
L 85.791557 65.982381 
L 85.874379 64.720196 
L 85.911122 64.720196 
L 85.945929 63.878739 
L 86.110325 63.878739 
L 86.11798 63.037283 
L 86.393268 63.037283 
L 86.429863 61.354369 
L 86.566007 61.354369 
L 86.608483 60.092184 
L 86.808037 60.092184 
L 86.87971 58.829999 
L 86.965141 58.829999 
L 86.986437 57.988543 
L 87.129484 57.988543 
L 87.129484 57.567814 
L 87.641135 57.567814 
L 87.641135 57.147086 
L 87.936385 57.147086 
L 87.936385 56.726358 
L 88.062338 56.726358 
L 88.124849 55.043445 
L 88.284377 55.043445 
L 88.38509 53.360531 
L 88.536613 53.360531 
L 88.560908 52.519075 
L 89.386134 52.519075 
L 89.413035 51.25689 
L 89.658416 51.25689 
L 89.658416 50.836162 
L 90.233919 50.836162 
L 90.233919 50.415433 
L 90.4131 50.415433 
L 90.4131 49.994705 
L 90.53723 49.994705 
L 90.53723 49.573977 
L 90.653472 49.573977 
L 90.69878 48.73252 
L 90.867609 48.73252 
L 90.867609 48.311792 
L 91.022823 48.311792 
L 91.082781 47.470335 
L 91.167311 47.470335 
L 91.167311 47.049607 
L 91.485364 47.049607 
L 91.485364 46.628878 
L 91.617886 46.628878 
L 91.618469 45.787422 
L 91.995089 45.787422 
L 91.995089 45.366694 
L 92.107306 45.366694 
L 92.203151 43.68378 
L 92.347724 43.68378 
L 92.347724 43.263052 
L 92.467971 43.263052 
L 92.562642 42.421595 
L 92.915663 42.421595 
L 92.940155 41.580139 
L 93.230459 41.580139 
L 93.298929 40.738682 
L 93.361223 40.738682 
L 93.361223 40.317954 
L 93.560148 40.317954 
L 93.661257 38.635041 
L 93.678836 38.635041 
L 93.727072 37.372856 
L 93.834272 37.372856 
L 93.880034 36.531399 
L 94.42267 36.531399 
L 94.507971 35.269214 
L 94.696752 35.269214 
L 94.696752 34.848486 
L 94.821903 34.848486 
L 94.821903 34.427758 
L 94.97703 34.427758 
L 94.996302 33.586301 
L 95.328829 33.586301 
L 95.431287 31.903388 
L 95.649592 31.903388 
L 95.746629 30.220474 
L 95.898715 30.220474 
L 95.968744 29.379018 
L 96.199465 29.379018 
L 96.214642 28.537561 
L 96.536129 28.537561 
L 96.536129 28.116833 
L 96.693604 28.116833 
L 96.693604 27.696105 
L 97.078945 27.696105 
L 97.078945 27.275376 
L 97.31607 27.275376 
L 97.360543 26.43392 
L 97.951112 26.43392 
L 98.034137 25.171735 
L 98.26249 25.171735 
L 98.326703 24.330278 
L 98.580485 24.330278 
L 98.671419 23.488822 
L 98.861218 23.488822 
L 98.940717 22.647365 
L 99.284957 22.647365 
L 99.284957 22.226637 
L 99.814701 22.226637 
L 99.814701 21.805908 
L 100.240254 21.805908 
L 100.240254 21.38518 
L 101.507225 21.38518 
L 101.507225 20.964452 
L 101.941098 20.964452 
L 101.941098 20.543723 
L 102.806604 20.543723 
L 102.865512 19.702267 
L 102.962862 19.702267 
L 102.962862 19.281538 
L 104.391696 19.281538 
L 104.391696 18.86081 
L 104.900636 18.86081 
L 104.900636 18.440082 
L 106.475862 18.440082 
L 106.475862 18.019354 
L 106.475862 18.019354 
" clip-path="url(#p4e743ec9a2)" style="fill: none; stroke: #2f6bbd; stroke-width: 1.4; stroke-linecap: square"/>
   </g>
   <g id="line2d_47">
    <path d="M 86.196931 169.060816 
L 87.042719 169.060816 
L 87.042719 168.640088 
L 87.549438 168.640088 
L 87.549438 168.219359 
L 89.329535 168.219359 
L 89.329535 167.798631 
L 89.61114 167.798631 
L 89.61114 167.377903 
L 92.514324 167.377903 
L 92.604557 166.536446 
L 92.714753 166.536446 
L 92.714753 166.115718 
L 93.40378 166.115718 
L 93.40378 165.69499 
L 94.644836 165.69499 
L 94.644836 165.274261 
L 95.759335 165.274261 
L 95.759335 164.853533 
L 96.545094 164.853533 
L 96.545094 164.432805 
L 97.950178 164.432805 
L 97.950178 164.012076 
L 98.399346 164.012076 
L 98.399346 163.591348 
L 98.999586 163.591348 
L 98.999586 163.17062 
L 100.156627 163.17062 
L 100.156627 162.749891 
L 101.08182 162.749891 
L 101.08182 162.329163 
L 101.553874 162.329163 
L 101.553874 161.908435 
L 101.736808 161.908435 
L 101.736808 161.487707 
L 102.085029 161.487707 
L 102.134572 160.64625 
L 103.112637 160.64625 
L 103.112637 160.225522 
L 103.228973 160.225522 
L 103.228973 159.804793 
L 103.683731 159.804793 
L 103.683731 159.384065 
L 104.217924 159.384065 
L 104.217924 158.963337 
L 104.863841 158.963337 
L 104.863841 158.542608 
L 105.122614 158.542608 
L 105.122614 158.12188 
L 106.298864 158.12188 
L 106.342025 157.280423 
L 106.573198 157.280423 
L 106.573198 156.859695 
L 107.653695 156.859695 
L 107.653695 156.438967 
L 107.799057 156.438967 
L 107.799057 156.018239 
L 108.090454 156.018239 
L 108.18523 155.176782 
L 108.259229 155.176782 
L 108.259229 154.756054 
L 108.500794 154.756054 
L 108.590022 153.914597 
L 108.839014 153.914597 
L 108.839014 153.493869 
L 108.988661 153.493869 
L 108.988661 153.07314 
L 109.672211 153.07314 
L 109.753042 152.231684 
L 109.840193 152.231684 
L 109.840193 151.810955 
L 110.000544 151.810955 
L 110.000544 151.390227 
L 111.028162 151.390227 
L 111.028162 150.969499 
L 111.65968 150.969499 
L 111.65968 150.548771 
L 112.22395 150.548771 
L 112.22395 150.128042 
L 112.931586 150.128042 
L 113.040071 149.286586 
L 113.217286 149.286586 
L 113.315453 148.445129 
L 113.560896 148.445129 
L 113.560896 148.024401 
L 113.776925 148.024401 
L 113.778763 147.182944 
L 114.050156 147.182944 
L 114.050156 146.762216 
L 114.346026 146.762216 
L 114.35442 145.920759 
L 114.729873 145.920759 
L 114.729873 145.500031 
L 115.342795 145.500031 
L 115.342795 145.079303 
L 116.011785 145.079303 
L 116.023569 144.237846 
L 116.633732 144.237846 
L 116.633732 143.817118 
L 116.813568 143.817118 
L 116.83195 142.975661 
L 117.361084 142.975661 
L 117.361084 142.554933 
L 118.747099 142.554933 
L 118.747099 142.134204 
L 118.915625 142.134204 
L 118.915625 141.713476 
L 119.830167 141.713476 
L 119.830167 141.292748 
L 120.072756 141.292748 
L 120.14139 140.451291 
L 120.457847 140.451291 
L 120.467131 139.609835 
L 120.671208 139.609835 
L 120.671208 139.189106 
L 121.120823 139.189106 
L 121.158828 137.926921 
L 121.440939 137.926921 
L 121.440939 137.506193 
L 121.571663 137.506193 
L 121.571663 137.085465 
L 121.785944 137.085465 
L 121.785944 136.664736 
L 122.531767 136.664736 
L 122.554969 135.402551 
L 122.947648 135.402551 
L 122.950844 134.561095 
L 123.298722 134.561095 
L 123.298722 134.140367 
L 123.790018 134.140367 
L 123.790018 133.719638 
L 123.966973 133.719638 
L 124.007154 132.878182 
L 124.163909 132.878182 
L 124.272009 132.036725 
L 124.505345 132.036725 
L 124.59546 130.353812 
L 124.705662 130.353812 
L 124.809548 129.091627 
L 125.091984 129.091627 
L 125.091984 128.670899 
L 125.214623 128.670899 
L 125.277779 127.829442 
L 125.367337 127.829442 
L 125.382005 126.987985 
L 125.579704 126.987985 
L 125.674758 125.7258 
L 125.795092 125.7258 
L 125.896881 124.884344 
L 126.182217 124.884344 
L 126.182217 124.463615 
L 126.318493 124.463615 
L 126.318493 124.042887 
L 126.606423 124.042887 
L 126.695911 123.201431 
L 126.742909 123.201431 
L 126.761701 122.359974 
L 127.000416 122.359974 
L 127.066716 121.518517 
L 127.472274 121.518517 
L 127.472274 121.097789 
L 128.03688 121.097789 
L 128.03688 120.677061 
L 128.192977 120.677061 
L 128.192977 120.256332 
L 128.479332 120.256332 
L 128.514482 119.414876 
L 128.690725 119.414876 
L 128.690725 118.994147 
L 128.898996 118.994147 
L 128.898996 118.573419 
L 129.04412 118.573419 
L 129.136768 117.731963 
L 129.180084 117.731963 
L 129.180084 117.311234 
L 129.316682 117.311234 
L 129.316682 116.890506 
L 129.52393 116.890506 
L 129.52393 116.469778 
L 130.34547 116.469778 
L 130.34547 116.049049 
L 131.093671 116.049049 
L 131.093671 115.628321 
L 131.594085 115.628321 
L 131.594085 115.207593 
L 132.503814 115.207593 
L 132.503814 114.786864 
L 133.087456 114.786864 
L 133.158416 113.945408 
L 133.318316 113.945408 
L 133.318316 113.524679 
L 133.435497 113.524679 
L 133.435497 113.103951 
L 133.816298 113.103951 
L 133.920873 111.841766 
L 134.222109 111.841766 
L 134.222109 111.421038 
L 134.681943 111.421038 
L 134.684088 110.579581 
L 134.92622 110.579581 
L 134.92622 110.158853 
L 135.117116 110.158853 
L 135.117116 109.738125 
L 135.446662 109.738125 
L 135.446662 109.317396 
L 135.855148 109.317396 
L 135.855148 108.896668 
L 136.176819 108.896668 
L 136.176819 108.47594 
L 136.345181 108.47594 
L 136.425708 107.634483 
L 136.538979 107.634483 
L 136.538979 107.213755 
L 137.063936 107.213755 
L 137.063936 106.793027 
L 137.297942 106.793027 
L 137.297942 106.372298 
L 137.621128 106.372298 
L 137.621128 105.95157 
L 138.191077 105.95157 
L 138.191077 105.530842 
L 138.360544 105.530842 
L 138.360544 105.110113 
L 138.48191 105.110113 
L 138.48191 104.689385 
L 138.684681 104.689385 
L 138.794558 103.847928 
L 138.884694 103.847928 
L 138.950552 103.006472 
L 139.426143 103.006472 
L 139.426143 102.585743 
L 140.060715 102.585743 
L 140.060715 102.165015 
L 140.204436 102.165015 
L 140.204436 101.744287 
L 140.443472 101.744287 
L 140.443472 101.323559 
L 140.670798 101.323559 
L 140.670798 100.90283 
L 140.817098 100.90283 
L 140.838922 99.640645 
L 141.199087 99.640645 
L 141.274324 98.799189 
L 141.564228 98.799189 
L 141.564228 98.37846 
L 141.740065 98.37846 
L 141.740065 97.957732 
L 142.161061 97.957732 
L 142.161061 97.537004 
L 142.328101 97.537004 
L 142.328101 97.116275 
L 142.517533 97.116275 
L 142.624812 96.274819 
L 142.763991 96.274819 
L 142.763991 95.854091 
L 143.159194 95.854091 
L 143.20249 95.012634 
L 143.280287 95.012634 
L 143.280287 94.591906 
L 143.412015 94.591906 
L 143.412015 94.171177 
L 143.587239 94.171177 
L 143.658173 93.329721 
L 143.992349 93.329721 
L 143.992349 92.908992 
L 144.784032 92.908992 
L 144.798075 92.067536 
L 144.923336 92.067536 
L 144.923336 91.646807 
L 145.138786 91.646807 
L 145.150141 90.805351 
L 145.30306 90.805351 
L 145.30306 90.384623 
L 145.487031 90.384623 
L 145.5498 89.122438 
L 145.666108 89.122438 
L 145.69821 88.280981 
L 145.940993 88.280981 
L 145.965982 87.439524 
L 146.318927 87.439524 
L 146.318927 87.018796 
L 147.265099 87.018796 
L 147.265099 86.598068 
L 147.402168 86.598068 
L 147.482761 85.756611 
L 147.572086 85.756611 
L 147.643668 84.915155 
L 147.749158 84.915155 
L 147.749158 84.494426 
L 148.139794 84.494426 
L 148.216834 83.65297 
L 148.265141 83.65297 
L 148.265141 83.232241 
L 148.553366 83.232241 
L 148.553366 82.811513 
L 148.840364 82.811513 
L 148.875484 81.970056 
L 149.048839 81.970056 
L 149.048839 81.549328 
L 149.192246 81.549328 
L 149.192246 81.1286 
L 149.350918 81.1286 
L 149.413984 80.287143 
L 149.573184 80.287143 
L 149.573184 79.866415 
L 150.120593 79.866415 
L 150.203029 79.024958 
L 150.319889 79.024958 
L 150.394633 78.183502 
L 150.708222 78.183502 
L 150.708222 77.762773 
L 150.8634 77.762773 
L 150.8634 77.342045 
L 151.05643 77.342045 
L 151.05643 76.921317 
L 151.363375 76.921317 
L 151.369709 76.07986 
L 151.48427 76.07986 
L 151.48427 75.659132 
L 151.704555 75.659132 
L 151.704555 75.238403 
L 152.09582 75.238403 
L 152.09582 74.817675 
L 152.71214 74.817675 
L 152.71214 74.396947 
L 153.193564 74.396947 
L 153.193564 73.976219 
L 153.3693 73.976219 
L 153.3693 73.55549 
L 153.656194 73.55549 
L 153.656194 73.134762 
L 153.84491 73.134762 
L 153.84491 72.714034 
L 153.957867 72.714034 
L 153.981957 71.872577 
L 154.315688 71.872577 
L 154.315688 71.451849 
L 154.777741 71.451849 
L 154.777741 71.03112 
L 155.02965 71.03112 
L 155.02965 70.610392 
L 155.218196 70.610392 
L 155.246018 69.768935 
L 156.20011 69.768935 
L 156.284338 68.927479 
L 156.39605 68.927479 
L 156.39605 68.506751 
L 156.510553 68.506751 
L 156.510553 68.086022 
L 156.996519 68.086022 
L 156.996519 67.665294 
L 157.467902 67.665294 
L 157.467902 67.244566 
L 157.783735 67.244566 
L 157.834265 66.403109 
L 157.913727 66.403109 
L 157.913727 65.982381 
L 158.086442 65.982381 
L 158.086442 65.561652 
L 158.744096 65.561652 
L 158.744096 65.140924 
L 159.231902 65.140924 
L 159.231902 64.720196 
L 159.766069 64.720196 
L 159.766069 64.299467 
L 160.141072 64.299467 
L 160.212537 63.458011 
L 160.31747 63.458011 
L 160.31747 63.037283 
L 161.02318 63.037283 
L 161.02318 62.616554 
L 161.312798 62.616554 
L 161.38391 61.354369 
L 161.515116 61.354369 
L 161.566262 60.512913 
L 161.762779 60.512913 
L 161.821056 59.671456 
L 162.115161 59.671456 
L 162.115161 59.250728 
L 163.300056 59.250728 
L 163.300056 58.829999 
L 163.552031 58.829999 
L 163.552031 58.409271 
L 163.703836 58.409271 
L 163.703836 57.988543 
L 166.318177 57.988543 
L 166.318177 57.567814 
L 166.452989 57.567814 
L 166.452989 57.147086 
L 167.277678 57.147086 
L 167.317336 56.30563 
L 167.577218 56.30563 
L 167.577218 55.884901 
L 167.934112 55.884901 
L 167.934112 55.464173 
L 168.119264 55.464173 
L 168.119264 55.043445 
L 168.259224 55.043445 
L 168.296011 54.201988 
L 168.605338 54.201988 
L 168.605338 53.78126 
L 169.715793 53.78126 
L 169.715793 53.360531 
L 170.432195 53.360531 
L 170.432195 52.939803 
L 171.798052 52.939803 
L 171.798052 52.519075 
L 172.076513 52.519075 
L 172.128314 51.677618 
L 173.605824 51.677618 
L 173.605824 51.25689 
L 174.138353 51.25689 
L 174.138353 50.836162 
L 174.4611 50.836162 
L 174.463122 49.994705 
L 174.642111 49.994705 
L 174.642111 49.573977 
L 175.252176 49.573977 
L 175.252176 49.153248 
L 175.583322 49.153248 
L 175.617772 47.891063 
L 175.725255 47.891063 
L 175.725255 47.470335 
L 176.152777 47.470335 
L 176.152777 47.049607 
L 177.643105 47.049607 
L 177.648725 46.20815 
L 178.229112 46.20815 
L 178.229112 45.787422 
L 179.173181 45.787422 
L 179.173181 45.366694 
L 179.303389 45.366694 
L 179.396793 44.525237 
L 179.687022 44.525237 
L 179.687022 44.104509 
L 180.7692 44.104509 
L 180.7692 43.68378 
L 181.144846 43.68378 
L 181.144846 43.263052 
L 181.652923 43.263052 
L 181.652923 42.842324 
L 181.811386 42.842324 
L 181.811386 42.421595 
L 182.197497 42.421595 
L 182.197497 42.000867 
L 182.320174 42.000867 
L 182.320174 41.580139 
L 182.855188 41.580139 
L 182.915782 40.738682 
L 183.774511 40.738682 
L 183.774511 40.317954 
L 184.642138 40.317954 
L 184.642138 39.897226 
L 185.452951 39.897226 
L 185.452951 39.476497 
L 185.624944 39.476497 
L 185.624944 39.055769 
L 186.256901 39.055769 
L 186.256901 38.635041 
L 187.353262 38.635041 
L 187.353262 38.214312 
L 187.829622 38.214312 
L 187.829622 37.793584 
L 188.371343 37.793584 
L 188.371343 37.372856 
L 188.592436 37.372856 
L 188.592436 36.952127 
L 190.651475 36.952127 
L 190.651475 36.531399 
L 191.45123 36.531399 
L 191.45123 36.110671 
L 192.964711 36.110671 
L 193.066377 30.641203 
L 193.077871 30.641203 
L 193.18621 22.226637 
L 193.197977 22.226637 
L 193.268168 18.86081 
L 193.310321 18.86081 
L 193.337675 18.019354 
L 193.337675 18.019354 
" clip-path="url(#p4e743ec9a2)" style="fill: none; stroke: #4e4e4e; stroke-width: 1.4; stroke-linecap: square"/>
   </g>
   <g id="line2d_48">
    <path d="M 78.968737 169.060816 
L 80.360251 169.060816 
L 80.360251 168.640088 
L 83.281966 168.640088 
L 83.281966 168.219359 
L 84.652876 168.219359 
L 84.652876 167.798631 
L 86.936635 167.798631 
L 86.936635 167.377903 
L 87.218006 167.377903 
L 87.319738 166.536446 
L 87.426335 166.536446 
L 87.426335 166.115718 
L 87.784491 166.115718 
L 87.784491 165.69499 
L 87.963989 165.69499 
L 87.963989 165.274261 
L 88.130795 165.274261 
L 88.136086 164.432805 
L 88.569452 164.432805 
L 88.620461 163.591348 
L 88.685664 163.591348 
L 88.794929 162.749891 
L 88.874672 162.749891 
L 88.985236 161.487707 
L 89.186871 161.487707 
L 89.186871 161.066978 
L 89.593863 161.066978 
L 89.593863 160.64625 
L 89.808318 160.64625 
L 89.814827 159.804793 
L 89.989963 159.804793 
L 90.05621 158.963337 
L 90.169299 158.963337 
L 90.209489 158.12188 
L 90.367351 158.12188 
L 90.449079 157.280423 
L 90.560256 157.280423 
L 90.621133 156.018239 
L 90.860589 156.018239 
L 90.860589 155.59751 
L 91.035342 155.59751 
L 91.047203 154.335325 
L 91.250604 154.335325 
L 91.359617 151.390227 
L 91.432773 151.390227 
L 91.470738 150.548771 
L 91.576801 150.548771 
L 91.666958 149.707314 
L 91.804876 149.707314 
L 91.862287 148.865857 
L 91.926955 148.865857 
L 91.926955 148.445129 
L 92.065232 148.445129 
L 92.065232 148.024401 
L 92.223013 148.024401 
L 92.223013 147.603672 
L 92.343223 147.603672 
L 92.343223 147.182944 
L 92.662028 147.182944 
L 92.689872 146.341487 
L 92.810824 146.341487 
L 92.906057 145.079303 
L 92.964706 145.079303 
L 93.053119 144.237846 
L 93.239428 144.237846 
L 93.300748 142.975661 
L 93.470854 142.975661 
L 93.473754 142.134204 
L 93.674757 142.134204 
L 93.674757 141.713476 
L 93.842965 141.713476 
L 93.903517 140.030563 
L 93.960848 140.030563 
L 94.004758 139.189106 
L 94.098752 139.189106 
L 94.098752 138.768378 
L 94.284743 138.768378 
L 94.370013 137.506193 
L 94.483768 137.506193 
L 94.483768 137.085465 
L 94.608544 137.085465 
L 94.691527 136.244008 
L 94.838403 136.244008 
L 94.889505 135.402551 
L 95.117762 135.402551 
L 95.222863 134.561095 
L 95.262298 134.561095 
L 95.329369 133.719638 
L 95.409338 133.719638 
L 95.488063 132.036725 
L 95.556988 132.036725 
L 95.556988 131.615997 
L 95.846548 131.615997 
L 95.846548 131.195268 
L 95.992388 131.195268 
L 95.992388 130.77454 
L 96.310316 130.77454 
L 96.400766 129.933083 
L 96.657519 129.933083 
L 96.730111 128.25017 
L 96.793824 128.25017 
L 96.793824 127.829442 
L 96.962616 127.829442 
L 96.962616 127.408714 
L 97.34316 127.408714 
L 97.34316 126.987985 
L 97.496126 126.987985 
L 97.591694 125.7258 
L 97.647166 125.7258 
L 97.673076 124.463615 
L 97.76721 124.463615 
L 97.865573 123.201431 
L 97.97497 123.201431 
L 98.063357 122.359974 
L 98.277624 122.359974 
L 98.374241 120.677061 
L 98.976642 120.677061 
L 98.976642 120.256332 
L 99.233543 120.256332 
L 99.325814 119.414876 
L 99.493497 119.414876 
L 99.493497 118.994147 
L 99.734371 118.994147 
L 99.734371 118.573419 
L 99.902405 118.573419 
L 100.003221 117.311234 
L 100.116569 117.311234 
L 100.155499 116.469778 
L 100.473899 116.469778 
L 100.513917 115.207593 
L 100.593898 115.207593 
L 100.593898 114.786864 
L 101.011791 114.786864 
L 101.054196 113.945408 
L 101.364513 113.945408 
L 101.364513 113.524679 
L 101.836371 113.524679 
L 101.836371 113.103951 
L 102.037728 113.103951 
L 102.037728 112.683223 
L 102.197383 112.683223 
L 102.197383 112.262495 
L 102.721872 112.262495 
L 102.740673 111.421038 
L 103.015943 111.421038 
L 103.015943 111.00031 
L 103.162062 111.00031 
L 103.271608 110.158853 
L 103.359321 110.158853 
L 103.359321 109.738125 
L 103.484374 109.738125 
L 103.484374 109.317396 
L 103.648107 109.317396 
L 103.648107 108.896668 
L 103.859302 108.896668 
L 103.859302 108.47594 
L 104.037754 108.47594 
L 104.131535 107.213755 
L 104.276411 107.213755 
L 104.343402 106.372298 
L 104.40255 106.372298 
L 104.459173 105.530842 
L 104.561297 105.530842 
L 104.562558 104.689385 
L 104.747082 104.689385 
L 104.845108 103.847928 
L 104.886986 103.847928 
L 104.981484 103.006472 
L 105.125226 103.006472 
L 105.125226 102.585743 
L 105.340653 102.585743 
L 105.451644 101.323559 
L 105.513116 101.323559 
L 105.617216 99.640645 
L 105.791454 99.640645 
L 105.791454 99.219917 
L 105.940653 99.219917 
L 105.958746 98.37846 
L 106.089806 98.37846 
L 106.195951 96.274819 
L 106.263126 96.274819 
L 106.28665 95.433362 
L 106.44566 95.433362 
L 106.45657 94.591906 
L 106.561811 94.591906 
L 106.655614 92.488264 
L 106.715214 92.488264 
L 106.807529 91.226079 
L 106.996788 91.226079 
L 107.06683 90.384623 
L 107.114727 90.384623 
L 107.115023 89.543166 
L 107.226575 89.543166 
L 107.331608 87.439524 
L 107.577362 87.439524 
L 107.663223 85.756611 
L 107.887707 85.756611 
L 107.887707 85.335883 
L 108.021689 85.335883 
L 108.021689 84.915155 
L 108.316447 84.915155 
L 108.316447 84.494426 
L 108.439301 84.494426 
L 108.517439 82.811513 
L 108.589561 82.811513 
L 108.676466 81.1286 
L 108.738714 81.1286 
L 108.755181 80.287143 
L 108.938977 80.287143 
L 108.938977 79.866415 
L 109.519931 79.866415 
L 109.624568 78.183502 
L 109.700222 78.183502 
L 109.775734 76.921317 
L 110.016588 76.921317 
L 110.123871 76.07986 
L 110.214528 76.07986 
L 110.323953 75.238403 
L 110.519787 75.238403 
L 110.602382 73.976219 
L 110.639593 73.976219 
L 110.714882 73.134762 
L 110.880352 73.134762 
L 110.966875 71.451849 
L 111.09665 71.451849 
L 111.09665 71.03112 
L 111.310062 71.03112 
L 111.386228 69.768935 
L 111.501644 69.768935 
L 111.501644 69.348207 
L 111.665802 69.348207 
L 111.739097 68.506751 
L 111.802343 68.506751 
L 111.89874 67.665294 
L 112.253312 67.665294 
L 112.253312 67.244566 
L 112.554427 67.244566 
L 112.577081 66.403109 
L 112.993308 66.403109 
L 112.993308 65.982381 
L 113.43408 65.982381 
L 113.465097 65.140924 
L 113.549243 65.140924 
L 113.549243 64.720196 
L 113.781031 64.720196 
L 113.840154 63.878739 
L 113.894301 63.878739 
L 113.894301 63.458011 
L 114.16654 63.458011 
L 114.16654 63.037283 
L 114.437445 63.037283 
L 114.537919 62.195826 
L 114.666822 62.195826 
L 114.666822 61.775098 
L 114.783134 61.775098 
L 114.792013 60.933641 
L 115.192459 60.933641 
L 115.208443 60.092184 
L 115.424171 60.092184 
L 115.486086 59.250728 
L 115.572348 59.250728 
L 115.572348 58.829999 
L 115.892084 58.829999 
L 115.996189 57.567814 
L 116.157982 57.567814 
L 116.250399 56.726358 
L 116.290523 56.726358 
L 116.390123 55.884901 
L 116.403251 55.884901 
L 116.403251 55.464173 
L 116.569209 55.464173 
L 116.569209 55.043445 
L 116.693058 55.043445 
L 116.782353 53.78126 
L 116.822123 53.78126 
L 116.916695 52.519075 
L 116.973794 52.519075 
L 116.989338 51.677618 
L 117.128043 51.677618 
L 117.128043 51.25689 
L 117.246829 51.25689 
L 117.284778 49.994705 
L 117.466468 49.994705 
L 117.466468 49.573977 
L 117.634319 49.573977 
L 117.709839 48.73252 
L 117.752978 48.73252 
L 117.755051 47.891063 
L 117.982687 47.891063 
L 118.063763 46.628878 
L 118.16773 46.628878 
L 118.16773 46.20815 
L 118.339341 46.20815 
L 118.339341 45.787422 
L 118.534284 45.787422 
L 118.637331 44.525237 
L 118.674359 44.525237 
L 118.765473 43.68378 
L 118.914115 43.68378 
L 118.960586 42.842324 
L 119.044457 42.842324 
L 119.044457 42.421595 
L 119.228764 42.421595 
L 119.31452 41.580139 
L 119.402667 41.580139 
L 119.424455 39.897226 
L 119.612176 39.897226 
L 119.680211 39.055769 
L 119.857465 39.055769 
L 119.920126 38.214312 
L 120.086624 38.214312 
L 120.129419 37.372856 
L 120.22013 37.372856 
L 120.22013 36.952127 
L 120.444274 36.952127 
L 120.456628 36.110671 
L 120.706043 36.110671 
L 120.792703 34.848486 
L 120.85924 34.848486 
L 120.85924 34.427758 
L 121.068705 34.427758 
L 121.130321 33.165573 
L 121.339589 33.165573 
L 121.375859 31.903388 
L 121.539826 31.903388 
L 121.561988 31.061931 
L 121.829256 31.061931 
L 121.918278 30.220474 
L 122.008587 30.220474 
L 122.115645 28.95829 
L 122.224264 28.95829 
L 122.224264 28.537561 
L 122.442968 28.537561 
L 122.442968 28.116833 
L 122.572111 28.116833 
L 122.572111 27.696105 
L 122.717526 27.696105 
L 122.826718 25.592463 
L 122.963869 25.592463 
L 122.979791 24.751006 
L 123.08179 24.751006 
L 123.119509 23.90955 
L 123.550726 23.90955 
L 123.550726 23.488822 
L 123.910397 23.488822 
L 123.963696 22.647365 
L 124.448307 22.647365 
L 124.448307 22.226637 
L 124.695066 22.226637 
L 124.695066 21.805908 
L 124.880058 21.805908 
L 124.880058 21.38518 
L 125.887698 21.38518 
L 125.932653 20.122995 
L 126.135133 20.122995 
L 126.135133 19.702267 
L 126.309654 19.702267 
L 126.309654 19.281538 
L 126.653925 19.281538 
L 126.655587 18.440082 
L 129.007342 18.440082 
L 129.007342 18.019354 
L 129.007342 18.019354 
" clip-path="url(#p4e743ec9a2)" style="fill: none; stroke: #777777; stroke-width: 1.4; stroke-linecap: square"/>
   </g>
   <g id="line2d_49">
    <path d="M 39.246339 169.060816 
L 39.819602 169.060816 
L 39.819602 168.640088 
L 44.505782 168.640088 
L 44.505782 168.219359 
L 45.811263 168.219359 
L 45.811263 167.798631 
L 46.283049 167.798631 
L 46.283049 167.377903 
L 46.706973 167.377903 
L 46.791219 166.536446 
L 47.190913 166.536446 
L 47.190913 166.115718 
L 47.563969 166.115718 
L 47.563969 165.69499 
L 48.327072 165.69499 
L 48.414727 164.853533 
L 48.567192 164.853533 
L 48.567192 164.432805 
L 49.21597 164.432805 
L 49.21597 164.012076 
L 50.152332 164.012076 
L 50.152332 163.591348 
L 50.599997 163.591348 
L 50.599997 163.17062 
L 50.924986 163.17062 
L 50.924986 162.749891 
L 51.527497 162.749891 
L 51.592186 161.908435 
L 51.8128 161.908435 
L 51.869422 161.066978 
L 51.969082 161.066978 
L 51.969082 160.64625 
L 52.114788 160.64625 
L 52.114788 160.225522 
L 52.561995 160.225522 
L 52.668473 159.384065 
L 52.765035 159.384065 
L 52.83625 158.12188 
L 52.894503 158.12188 
L 52.894503 157.701152 
L 53.125421 157.701152 
L 53.125421 157.280423 
L 53.660846 157.280423 
L 53.721838 156.438967 
L 53.831819 156.438967 
L 53.940543 155.59751 
L 54.13822 155.59751 
L 54.21573 153.493869 
L 54.303631 153.493869 
L 54.388143 152.652412 
L 54.450025 152.652412 
L 54.450025 152.231684 
L 54.602285 152.231684 
L 54.602285 151.810955 
L 54.810249 151.810955 
L 54.88931 150.548771 
L 54.977674 150.548771 
L 54.977674 150.128042 
L 55.293781 150.128042 
L 55.375121 149.286586 
L 55.426854 149.286586 
L 55.535072 148.445129 
L 55.833388 148.445129 
L 55.893518 147.182944 
L 56.131212 147.182944 
L 56.131212 146.762216 
L 56.272759 146.762216 
L 56.272759 146.341487 
L 56.392083 146.341487 
L 56.493229 145.500031 
L 56.627254 145.500031 
L 56.717344 144.237846 
L 56.850785 144.237846 
L 56.944337 142.975661 
L 57.048838 142.975661 
L 57.138218 140.872019 
L 57.402594 140.872019 
L 57.504198 140.030563 
L 57.519791 140.030563 
L 57.581572 138.768378 
L 57.84077 138.768378 
L 57.84077 138.34765 
L 58.051855 138.34765 
L 58.155683 137.085465 
L 58.308933 137.085465 
L 58.308933 136.664736 
L 58.437359 136.664736 
L 58.534162 134.981823 
L 58.564109 134.981823 
L 58.660436 133.719638 
L 58.699221 133.719638 
L 58.699221 133.29891 
L 58.924182 133.29891 
L 59.00533 132.457453 
L 59.255234 132.457453 
L 59.33498 130.77454 
L 59.386631 130.77454 
L 59.439867 129.933083 
L 59.578575 129.933083 
L 59.681676 129.091627 
L 59.86721 129.091627 
L 59.86721 128.670899 
L 59.995965 128.670899 
L 60.07844 126.987985 
L 60.201161 126.987985 
L 60.292672 125.305072 
L 60.336428 125.305072 
L 60.431498 123.201431 
L 60.497776 123.201431 
L 60.497776 122.780702 
L 60.678088 122.780702 
L 60.737526 121.518517 
L 60.854953 121.518517 
L 60.891833 120.677061 
L 60.974222 120.677061 
L 61.048323 118.994147 
L 61.102484 118.994147 
L 61.211382 118.152691 
L 61.305861 118.152691 
L 61.305861 117.731963 
L 61.465831 117.731963 
L 61.465831 117.311234 
L 61.604564 117.311234 
L 61.650439 116.049049 
L 61.724859 116.049049 
L 61.817682 114.366136 
L 61.877842 114.366136 
L 61.90386 113.524679 
L 62.106177 113.524679 
L 62.190025 112.683223 
L 62.286498 112.683223 
L 62.35446 111.841766 
L 62.504493 111.841766 
L 62.59337 109.738125 
L 62.616036 109.738125 
L 62.616036 109.317396 
L 62.770517 109.317396 
L 62.818845 108.055211 
L 62.926953 108.055211 
L 63.007332 106.793027 
L 63.046548 106.793027 
L 63.093017 105.95157 
L 63.18128 105.95157 
L 63.287724 104.689385 
L 63.311187 104.689385 
L 63.311187 104.268657 
L 63.43131 104.268657 
L 63.43131 103.847928 
L 63.583234 103.847928 
L 63.687835 102.165015 
L 63.696291 102.165015 
L 63.729304 101.323559 
L 64.161544 101.323559 
L 64.181277 100.482102 
L 64.455437 100.482102 
L 64.550527 98.37846 
L 64.63333 98.37846 
L 64.701683 97.537004 
L 64.885027 97.537004 
L 64.922012 96.695547 
L 65.016449 96.695547 
L 65.124504 94.171177 
L 65.209663 94.171177 
L 65.275171 92.908992 
L 65.438327 92.908992 
L 65.53344 91.646807 
L 65.623706 91.646807 
L 65.623706 91.226079 
L 65.750736 91.226079 
L 65.803542 90.384623 
L 65.984866 90.384623 
L 65.984866 89.963894 
L 66.157497 89.963894 
L 66.157497 89.543166 
L 66.30829 89.543166 
L 66.336357 88.280981 
L 66.448129 88.280981 
L 66.485848 87.018796 
L 66.861357 87.018796 
L 66.861357 86.598068 
L 66.976567 86.598068 
L 67.038869 85.756611 
L 67.122088 85.756611 
L 67.182895 84.915155 
L 67.369242 84.915155 
L 67.466449 83.65297 
L 67.506746 83.65297 
L 67.565626 82.811513 
L 67.631469 82.811513 
L 67.722163 81.1286 
L 67.831941 81.1286 
L 67.831941 80.707871 
L 67.964202 80.707871 
L 68.02349 79.445687 
L 68.083236 79.445687 
L 68.083236 79.024958 
L 68.312181 79.024958 
L 68.415888 77.762773 
L 68.670341 77.762773 
L 68.71487 76.500588 
L 68.854504 76.500588 
L 68.954936 75.238403 
L 69.179153 75.238403 
L 69.179153 74.817675 
L 69.381421 74.817675 
L 69.464893 73.134762 
L 69.562079 73.134762 
L 69.562079 72.714034 
L 69.683945 72.714034 
L 69.683945 72.293305 
L 69.883813 72.293305 
L 69.883813 71.872577 
L 70.085813 71.872577 
L 70.117907 71.03112 
L 70.274676 71.03112 
L 70.340435 70.189664 
L 70.49248 70.189664 
L 70.563202 69.348207 
L 70.666056 69.348207 
L 70.771708 68.086022 
L 70.777973 68.086022 
L 70.838139 65.982381 
L 71.006893 65.982381 
L 71.073271 64.299467 
L 71.125035 64.299467 
L 71.197611 63.458011 
L 71.253202 63.458011 
L 71.339508 62.195826 
L 71.366427 62.195826 
L 71.472172 60.512913 
L 71.489132 60.512913 
L 71.489132 60.092184 
L 71.636904 60.092184 
L 71.709882 58.829999 
L 71.867061 58.829999 
L 71.968632 57.567814 
L 72.115117 57.567814 
L 72.174845 56.726358 
L 72.260018 56.726358 
L 72.30933 55.464173 
L 72.388585 55.464173 
L 72.457361 54.201988 
L 72.534645 54.201988 
L 72.61055 52.939803 
L 72.783677 52.939803 
L 72.886059 51.677618 
L 72.949702 51.677618 
L 73.013138 50.415433 
L 73.19922 50.415433 
L 73.240676 49.573977 
L 73.550394 49.573977 
L 73.587799 48.73252 
L 73.850989 48.73252 
L 73.875117 47.891063 
L 74.015549 47.891063 
L 74.015549 47.470335 
L 74.296564 47.470335 
L 74.399829 45.787422 
L 74.418423 45.787422 
L 74.515215 44.104509 
L 74.642988 44.104509 
L 74.753718 43.263052 
L 74.839811 43.263052 
L 74.839811 42.842324 
L 75.125589 42.842324 
L 75.213066 41.580139 
L 75.336709 41.580139 
L 75.393346 40.738682 
L 75.490838 40.738682 
L 75.490838 40.317954 
L 75.829754 40.317954 
L 75.935103 39.476497 
L 76.096155 39.476497 
L 76.096155 39.055769 
L 76.401954 39.055769 
L 76.441263 38.214312 
L 76.579886 38.214312 
L 76.650065 37.372856 
L 76.934206 37.372856 
L 77.033652 36.110671 
L 77.155003 36.110671 
L 77.155003 35.689942 
L 77.373818 35.689942 
L 77.440257 34.427758 
L 77.641869 34.427758 
L 77.660496 33.586301 
L 77.831362 33.586301 
L 77.831362 33.165573 
L 78.013098 33.165573 
L 78.101867 32.324116 
L 78.192752 32.324116 
L 78.2617 31.482659 
L 78.324956 31.482659 
L 78.324956 31.061931 
L 78.490434 31.061931 
L 78.517378 30.220474 
L 78.720496 30.220474 
L 78.829644 28.95829 
L 78.866063 28.95829 
L 78.966867 27.696105 
L 79.072984 27.696105 
L 79.072984 27.275376 
L 79.458894 27.275376 
L 79.559783 26.43392 
L 79.761993 26.43392 
L 79.761993 26.013191 
L 80.240559 26.013191 
L 80.265421 25.171735 
L 80.492987 25.171735 
L 80.492987 24.751006 
L 80.673154 24.751006 
L 80.673154 24.330278 
L 80.917306 24.330278 
L 80.980376 22.647365 
L 81.036461 22.647365 
L 81.080768 21.805908 
L 81.185166 21.805908 
L 81.219274 20.964452 
L 82.585823 20.964452 
L 82.585823 20.543723 
L 82.706365 20.543723 
L 82.706365 20.122995 
L 82.968204 20.122995 
L 82.968204 19.702267 
L 83.185396 19.702267 
L 83.185396 19.281538 
L 83.997334 19.281538 
L 83.997334 18.86081 
L 85.366244 18.86081 
L 85.366244 18.440082 
L 87.523351 18.440082 
L 87.523351 18.019354 
L 87.523351 18.019354 
" clip-path="url(#p4e743ec9a2)" style="fill: none; stroke: #2a9d8f; stroke-width: 1.4; stroke-linecap: square"/>
   </g>
   <g id="patch_3">
    <path d="M 29.8 176.612889 
L 29.8 10.46728 
" style="fill: none; stroke: #000000; stroke-width: 0.7; stroke-linejoin: miter; stroke-linecap: square"/>
   </g>
   <g id="patch_4">
    <path d="M 29.8 176.612889 
L 237.619465 176.612889 
" style="fill: none; stroke: #000000; stroke-width: 0.7; stroke-linejoin: miter; stroke-linecap: square"/>
   </g>
   <g id="text_12">
    <text style="font-weight: 700; font-size: 10px; font-family: 'Arial'; text-anchor: start" x="9.018053" y="9.317812" transform="rotate(-0 9.018053 9.317812)">a</text>
   </g>
   <g id="legend_1">
    <g id="line2d_50">
     <path d="M 58.491653 146.500858 
L 65.491653 146.500858 
L 65.491653 146.500858 
L 72.491653 146.500858 
L 72.491653 146.500858 
" style="fill: none; stroke: #f28e2b; stroke-width: 1.4; stroke-linecap: square"/>
    </g>
    <g id="text_13">
     <text style="font-size: 7px; font-family: 'Arial'; text-anchor: start" x="78.091653" y="148.950858" transform="rotate(-0 78.091653 148.950858)">A2C+Pointer</text>
    </g>
    <g id="line2d_51">
     <path d="M 58.491653 156.402577 
L 65.491653 156.402577 
L 65.491653 156.402577 
L 72.491653 156.402577 
L 72.491653 156.402577 
" style="fill: none; stroke: #8e6c8a; stroke-width: 1.4; stroke-linecap: square"/>
    </g>
    <g id="text_14">
     <text style="font-size: 7px; font-family: 'Arial'; text-anchor: start" x="78.091653" y="158.852577" transform="rotate(-0 78.091653 158.852577)">ACO</text>
    </g>
    <g id="line2d_52">
     <path d="M 58.491653 166.304295 
L 65.491653 166.304295 
L 65.491653 166.304295 
L 72.491653 166.304295 
L 72.491653 166.304295 
" style="fill: none; stroke: #2f6bbd; stroke-width: 1.4; stroke-linecap: square"/>
    </g>
    <g id="text_15">
     <text style="font-size: 7px; font-family: 'Arial'; text-anchor: start" x="78.091653" y="168.754295" transform="rotate(-0 78.091653 168.754295)">PPO+Pointer</text>
    </g>
    <g id="line2d_53">
     <path d="M 133.141184 146.500858 
L 140.141184 146.500858 
L 140.141184 146.500858 
L 147.141184 146.500858 
L 147.141184 146.500858 
" style="fill: none; stroke: #4e4e4e; stroke-width: 1.4; stroke-linecap: square"/>
    </g>
    <g id="text_16">
     <text style="font-size: 7px; font-family: 'Arial'; text-anchor: start" x="152.741184" y="148.950858" transform="rotate(-0 152.741184 148.950858)">MILP</text>
    </g>
    <g id="line2d_54">
     <path d="M 133.141184 156.487889 
L 140.141184 156.487889 
L 140.141184 156.487889 
L 147.141184 156.487889 
L 147.141184 156.487889 
" style="fill: none; stroke: #777777; stroke-width: 1.4; stroke-linecap: square"/>
    </g>
    <g id="text_17">
     <text style="font-size: 7px; font-family: 'Arial'; text-anchor: start" x="152.741184" y="158.937889" transform="rotate(-0 152.741184 158.937889)">Priority Resource Greedy</text>
    </g>
    <g id="line2d_55">
     <path d="M 133.141184 166.471639 
L 140.141184 166.471639 
L 140.141184 166.471639 
L 147.141184 166.471639 
L 147.141184 166.471639 
" style="fill: none; stroke: #2a9d8f; stroke-width: 1.4; stroke-linecap: square"/>
    </g>
    <g id="text_18">
     <text style="font-size: 7px; font-family: 'Arial'; text-anchor: start" x="152.741184" y="168.921639" transform="rotate(-0 152.741184 168.921639)">Flat-MLP PPO</text>
    </g>
   </g>
  </g>
  <g id="axes_2">
   <g id="patch_5">
    <path d="M 287.343215 176.612889 
L 495.162681 176.612889 
L 495.162681 10.46728 
L 287.343215 10.46728 
z
" style="fill: #ffffff"/>
   </g>
   <g id="matplotlib.axis_3">
    <g id="xtick_29">
     <g id="line2d_56">
      <path d="M 292.521447 176.612889 
L 292.521447 10.46728 
" clip-path="url(#p63aacfe17a)" style="fill: none; stroke: #e5e7eb; stroke-width: 0.45; stroke-linecap: square"/>
     </g>
     <g id="line2d_57">
      <g>
       <use xlink:href="#mc53590da2a" x="292.521447" y="176.612889" style="stroke: #000000; stroke-width: 0.6"/>
      </g>
     </g>
     <g id="text_19">
      <!-- $\mathdefault{10^{0}}$ -->
      <g transform="translate(287.026447 190.331639)">
       <text>
        <tspan x="0" y="-0.599563" style="font-size: 7px; font-family: 'Arial'">1</tspan>
        <tspan x="3.893066" y="-0.599563" style="font-size: 7px; font-family: 'Arial'">0</tspan>
        <tspan x="7.908097" y="-5.478125" style="font-size: 4.9px; font-family: 'Arial'">0</tspan>
       </text>
      </g>
     </g>
    </g>
    <g id="xtick_30">
     <g id="line2d_58">
      <path d="M 383.307035 176.612889 
L 383.307035 10.46728 
" clip-path="url(#p63aacfe17a)" style="fill: none; stroke: #e5e7eb; stroke-width: 0.45; stroke-linecap: square"/>
     </g>
     <g id="line2d_59">
      <g>
       <use xlink:href="#mc53590da2a" x="383.307035" y="176.612889" style="stroke: #000000; stroke-width: 0.6"/>
      </g>
     </g>
     <g id="text_20">
      <!-- $\mathdefault{10^{1}}$ -->
      <g transform="translate(377.812035 190.331639)">
       <text>
        <tspan x="0" y="-0.599563" style="font-size: 7px; font-family: 'Arial'">1</tspan>
        <tspan x="3.893066" y="-0.599563" style="font-size: 7px; font-family: 'Arial'">0</tspan>
        <tspan x="7.908097" y="-5.478125" style="font-size: 4.9px; font-family: 'Arial'">1</tspan>
       </text>
      </g>
     </g>
    </g>
    <g id="xtick_31">
     <g id="line2d_60">
      <path d="M 474.092623 176.612889 
L 474.092623 10.46728 
" clip-path="url(#p63aacfe17a)" style="fill: none; stroke: #e5e7eb; stroke-width: 0.45; stroke-linecap: square"/>
     </g>
     <g id="line2d_61">
      <g>
       <use xlink:href="#mc53590da2a" x="474.092623" y="176.612889" style="stroke: #000000; stroke-width: 0.6"/>
      </g>
     </g>
     <g id="text_21">
      <!-- $\mathdefault{10^{2}}$ -->
      <g transform="translate(468.597623 190.331639)">
       <text>
        <tspan x="0" y="-0.599563" style="font-size: 7px; font-family: 'Arial'">1</tspan>
        <tspan x="3.893066" y="-0.599563" style="font-size: 7px; font-family: 'Arial'">0</tspan>
        <tspan x="7.908097" y="-5.478125" style="font-size: 4.9px; font-family: 'Arial'">2</tspan>
       </text>
      </g>
     </g>
    </g>
    <g id="xtick_32">
     <g id="line2d_62">
      <g>
       <use xlink:href="#ma2f6cf3b21" x="288.367326" y="176.612889" style="stroke: #000000; stroke-width: 0.6"/>
      </g>
     </g>
    </g>
    <g id="xtick_33">
     <g id="line2d_63">
      <g>
       <use xlink:href="#ma2f6cf3b21" x="319.850632" y="176.612889" style="stroke: #000000; stroke-width: 0.6"/>
      </g>
     </g>
    </g>
    <g id="xtick_34">
     <g id="line2d_64">
      <g>
       <use xlink:href="#ma2f6cf3b21" x="335.837181" y="176.612889" style="stroke: #000000; stroke-width: 0.6"/>
      </g>
     </g>
    </g>
    <g id="xtick_35">
     <g id="line2d_65">
      <g>
       <use xlink:href="#ma2f6cf3b21" x="347.179817" y="176.612889" style="stroke: #000000; stroke-width: 0.6"/>
      </g>
     </g>
    </g>
    <g id="xtick_36">
     <g id="line2d_66">
      <g>
       <use xlink:href="#ma2f6cf3b21" x="355.97785" y="176.612889" style="stroke: #000000; stroke-width: 0.6"/>
      </g>
     </g>
    </g>
    <g id="xtick_37">
     <g id="line2d_67">
      <g>
       <use xlink:href="#ma2f6cf3b21" x="363.166366" y="176.612889" style="stroke: #000000; stroke-width: 0.6"/>
      </g>
     </g>
    </g>
    <g id="xtick_38">
     <g id="line2d_68">
      <g>
       <use xlink:href="#ma2f6cf3b21" x="369.244169" y="176.612889" style="stroke: #000000; stroke-width: 0.6"/>
      </g>
     </g>
    </g>
    <g id="xtick_39">
     <g id="line2d_69">
      <g>
       <use xlink:href="#ma2f6cf3b21" x="374.509002" y="176.612889" style="stroke: #000000; stroke-width: 0.6"/>
      </g>
     </g>
    </g>
    <g id="xtick_40">
     <g id="line2d_70">
      <g>
       <use xlink:href="#ma2f6cf3b21" x="379.152914" y="176.612889" style="stroke: #000000; stroke-width: 0.6"/>
      </g>
     </g>
    </g>
    <g id="xtick_41">
     <g id="line2d_71">
      <g>
       <use xlink:href="#ma2f6cf3b21" x="410.63622" y="176.612889" style="stroke: #000000; stroke-width: 0.6"/>
      </g>
     </g>
    </g>
    <g id="xtick_42">
     <g id="line2d_72">
      <g>
       <use xlink:href="#ma2f6cf3b21" x="426.622769" y="176.612889" style="stroke: #000000; stroke-width: 0.6"/>
      </g>
     </g>
    </g>
    <g id="xtick_43">
     <g id="line2d_73">
      <g>
       <use xlink:href="#ma2f6cf3b21" x="437.965405" y="176.612889" style="stroke: #000000; stroke-width: 0.6"/>
      </g>
     </g>
    </g>
    <g id="xtick_44">
     <g id="line2d_74">
      <g>
       <use xlink:href="#ma2f6cf3b21" x="446.763438" y="176.612889" style="stroke: #000000; stroke-width: 0.6"/>
      </g>
     </g>
    </g>
    <g id="xtick_45">
     <g id="line2d_75">
      <g>
       <use xlink:href="#ma2f6cf3b21" x="453.951954" y="176.612889" style="stroke: #000000; stroke-width: 0.6"/>
      </g>
     </g>
    </g>
    <g id="xtick_46">
     <g id="line2d_76">
      <g>
       <use xlink:href="#ma2f6cf3b21" x="460.029757" y="176.612889" style="stroke: #000000; stroke-width: 0.6"/>
      </g>
     </g>
    </g>
    <g id="xtick_47">
     <g id="line2d_77">
      <g>
       <use xlink:href="#ma2f6cf3b21" x="465.29459" y="176.612889" style="stroke: #000000; stroke-width: 0.6"/>
      </g>
     </g>
    </g>
    <g id="xtick_48">
     <g id="line2d_78">
      <g>
       <use xlink:href="#ma2f6cf3b21" x="469.938502" y="176.612889" style="stroke: #000000; stroke-width: 0.6"/>
      </g>
     </g>
    </g>
    <g id="text_22">
     <text style="font-size: 8px; font-family: 'Arial'; text-anchor: middle" x="391.252948" y="201.546639" transform="rotate(-0 391.252948 201.546639)">95th-percentile planning time (s)</text>
    </g>
   </g>
   <g id="matplotlib.axis_4">
    <g id="ytick_7">
     <g id="line2d_79">
      <path d="M 287.343215 170.066197 
L 495.162681 170.066197 
" clip-path="url(#p63aacfe17a)" style="fill: none; stroke: #e5e7eb; stroke-width: 0.45; stroke-linecap: square"/>
     </g>
     <g id="line2d_80">
      <g>
       <use xlink:href="#m94b13d7d4d" x="287.343215" y="170.066197" style="stroke: #000000; stroke-width: 0.6"/>
      </g>
     </g>
     <g id="text_23">
      <text style="font-size: 7px; font-family: 'Arial'; text-anchor: end" x="280.843215" y="172.571432" transform="rotate(-0 280.843215 172.571432)">0.30</text>
     </g>
    </g>
    <g id="ytick_8">
     <g id="line2d_81">
      <path d="M 287.343215 150.323808 
L 495.162681 150.323808 
" clip-path="url(#p63aacfe17a)" style="fill: none; stroke: #e5e7eb; stroke-width: 0.45; stroke-linecap: square"/>
     </g>
     <g id="line2d_82">
      <g>
       <use xlink:href="#m94b13d7d4d" x="287.343215" y="150.323808" style="stroke: #000000; stroke-width: 0.6"/>
      </g>
     </g>
     <g id="text_24">
      <text style="font-size: 7px; font-family: 'Arial'; text-anchor: end" x="280.843215" y="152.829043" transform="rotate(-0 280.843215 152.829043)">0.35</text>
     </g>
    </g>
    <g id="ytick_9">
     <g id="line2d_83">
      <path d="M 287.343215 130.581419 
L 495.162681 130.581419 
" clip-path="url(#p63aacfe17a)" style="fill: none; stroke: #e5e7eb; stroke-width: 0.45; stroke-linecap: square"/>
     </g>
     <g id="line2d_84">
      <g>
       <use xlink:href="#m94b13d7d4d" x="287.343215" y="130.581419" style="stroke: #000000; stroke-width: 0.6"/>
      </g>
     </g>
     <g id="text_25">
      <text style="font-size: 7px; font-family: 'Arial'; text-anchor: end" x="280.843215" y="133.086653" transform="rotate(-0 280.843215 133.086653)">0.40</text>
     </g>
    </g>
    <g id="ytick_10">
     <g id="line2d_85">
      <path d="M 287.343215 110.83903 
L 495.162681 110.83903 
" clip-path="url(#p63aacfe17a)" style="fill: none; stroke: #e5e7eb; stroke-width: 0.45; stroke-linecap: square"/>
     </g>
     <g id="line2d_86">
      <g>
       <use xlink:href="#m94b13d7d4d" x="287.343215" y="110.83903" style="stroke: #000000; stroke-width: 0.6"/>
      </g>
     </g>
     <g id="text_26">
      <text style="font-size: 7px; font-family: 'Arial'; text-anchor: end" x="280.843215" y="113.344264" transform="rotate(-0 280.843215 113.344264)">0.45</text>
     </g>
    </g>
    <g id="ytick_11">
     <g id="line2d_87">
      <path d="M 287.343215 91.09664 
L 495.162681 91.09664 
" clip-path="url(#p63aacfe17a)" style="fill: none; stroke: #e5e7eb; stroke-width: 0.45; stroke-linecap: square"/>
     </g>
     <g id="line2d_88">
      <g>
       <use xlink:href="#m94b13d7d4d" x="287.343215" y="91.09664" style="stroke: #000000; stroke-width: 0.6"/>
      </g>
     </g>
     <g id="text_27">
      <text style="font-size: 7px; font-family: 'Arial'; text-anchor: end" x="280.843215" y="93.601875" transform="rotate(-0 280.843215 93.601875)">0.50</text>
     </g>
    </g>
    <g id="ytick_12">
     <g id="line2d_89">
      <path d="M 287.343215 71.354251 
L 495.162681 71.354251 
" clip-path="url(#p63aacfe17a)" style="fill: none; stroke: #e5e7eb; stroke-width: 0.45; stroke-linecap: square"/>
     </g>
     <g id="line2d_90">
      <g>
       <use xlink:href="#m94b13d7d4d" x="287.343215" y="71.354251" style="stroke: #000000; stroke-width: 0.6"/>
      </g>
     </g>
     <g id="text_28">
      <text style="font-size: 7px; font-family: 'Arial'; text-anchor: end" x="280.843215" y="73.859485" transform="rotate(-0 280.843215 73.859485)">0.55</text>
     </g>
    </g>
    <g id="ytick_13">
     <g id="line2d_91">
      <path d="M 287.343215 51.611862 
L 495.162681 51.611862 
" clip-path="url(#p63aacfe17a)" style="fill: none; stroke: #e5e7eb; stroke-width: 0.45; stroke-linecap: square"/>
     </g>
     <g id="line2d_92">
      <g>
       <use xlink:href="#m94b13d7d4d" x="287.343215" y="51.611862" style="stroke: #000000; stroke-width: 0.6"/>
      </g>
     </g>
     <g id="text_29">
      <text style="font-size: 7px; font-family: 'Arial'; text-anchor: end" x="280.843215" y="54.117096" transform="rotate(-0 280.843215 54.117096)">0.60</text>
     </g>
    </g>
    <g id="ytick_14">
     <g id="line2d_93">
      <path d="M 287.343215 31.869472 
L 495.162681 31.869472 
" clip-path="url(#p63aacfe17a)" style="fill: none; stroke: #e5e7eb; stroke-width: 0.45; stroke-linecap: square"/>
     </g>
     <g id="line2d_94">
      <g>
       <use xlink:href="#m94b13d7d4d" x="287.343215" y="31.869472" style="stroke: #000000; stroke-width: 0.6"/>
      </g>
     </g>
     <g id="text_30">
      <text style="font-size: 7px; font-family: 'Arial'; text-anchor: end" x="280.843215" y="34.374707" transform="rotate(-0 280.843215 34.374707)">0.65</text>
     </g>
    </g>
    <g id="ytick_15">
     <g id="line2d_95">
      <path d="M 287.343215 12.127083 
L 495.162681 12.127083 
" clip-path="url(#p63aacfe17a)" style="fill: none; stroke: #e5e7eb; stroke-width: 0.45; stroke-linecap: square"/>
     </g>
     <g id="line2d_96">
      <g>
       <use xlink:href="#m94b13d7d4d" x="287.343215" y="12.127083" style="stroke: #000000; stroke-width: 0.6"/>
      </g>
     </g>
     <g id="text_31">
      <text style="font-size: 7px; font-family: 'Arial'; text-anchor: end" x="280.843215" y="14.632318" transform="rotate(-0 280.843215 14.632318)">0.70</text>
     </g>
    </g>
    <g id="text_32">
     <text style="font-size: 8px; font-family: 'Arial'; text-anchor: middle" x="261.536809" y="93.540085" transform="rotate(-90 261.536809 93.540085)">D1: safe priority-weighted coverage</text>
    </g>
   </g>
   <g id="patch_6">
    <path d="M 287.343215 176.612889 
L 287.343215 10.46728 
" style="fill: none; stroke: #000000; stroke-width: 0.7; stroke-linejoin: miter; stroke-linecap: square"/>
   </g>
   <g id="patch_7">
    <path d="M 287.343215 176.612889 
L 495.162681 176.612889 
" style="fill: none; stroke: #000000; stroke-width: 0.7; stroke-linejoin: miter; stroke-linecap: square"/>
   </g>
   <g id="PathCollection_1">
    <defs>
     <path id="m1624c3c2e7" d="M 0 4.387482 
C 1.163574 4.387482 2.279647 3.925189 3.102418 3.102418 
C 3.925189 2.279647 4.387482 1.163574 4.387482 0 
C 4.387482 -1.163574 3.925189 -2.279647 3.102418 -3.102418 
C 2.279647 -3.925189 1.163574 -4.387482 0 -4.387482 
C -1.163574 -4.387482 -2.279647 -3.925189 -3.102418 -3.102418 
C -3.925189 -2.279647 -4.387482 -1.163574 -4.387482 0 
C -4.387482 1.163574 -3.925189 2.279647 -3.102418 3.102418 
C -2.279647 3.925189 -1.163574 4.387482 0 4.387482 
z
" style="stroke: #ffffff; stroke-width: 0.5"/>
    </defs>
    <g clip-path="url(#p63aacfe17a)">
     <use xlink:href="#m1624c3c2e7" x="321.127017" y="63.655312" style="fill: #2f6bbd; stroke: #ffffff; stroke-width: 0.5"/>
    </g>
   </g>
   <g id="text_33">
    <text style="font-size: 6.5px; font-family: 'Arial'; text-anchor: start" x="324.127017" y="61.655312" transform="rotate(-0 324.127017 61.655312)">PPO+Pointer</text>
   </g>
   <g id="PathCollection_2">
    <defs>
     <path id="ma0cb3625a6" d="M 0 4.387482 
C 1.163574 4.387482 2.279647 3.925189 3.102418 3.102418 
C 3.925189 2.279647 4.387482 1.163574 4.387482 0 
C 4.387482 -1.163574 3.925189 -2.279647 3.102418 -3.102418 
C 2.279647 -3.925189 1.163574 -4.387482 0 -4.387482 
C -1.163574 -4.387482 -2.279647 -3.925189 -3.102418 -3.102418 
C -3.925189 -2.279647 -4.387482 -1.163574 -4.387482 0 
C -4.387482 1.163574 -3.925189 2.279647 -3.102418 3.102418 
C -2.279647 3.925189 -1.163574 4.387482 0 4.387482 
z
" style="stroke: #ffffff; stroke-width: 0.5"/>
    </defs>
    <g clip-path="url(#p63aacfe17a)">
     <use xlink:href="#ma0cb3625a6" x="296.789555" y="168.859172" style="fill: #2a9d8f; stroke: #ffffff; stroke-width: 0.5"/>
    </g>
   </g>
   <g id="text_34">
    <text style="font-size: 6.5px; font-family: 'Arial'; text-anchor: start" x="299.789555" y="166.859172" transform="rotate(-0 299.789555 166.859172)">Flat-MLP PPO</text>
   </g>
   <g id="PathCollection_3">
    <defs>
     <path id="ma43b419b42" d="M 0 4.387482 
C 1.163574 4.387482 2.279647 3.925189 3.102418 3.102418 
C 3.925189 2.279647 4.387482 1.163574 4.387482 0 
C 4.387482 -1.163574 3.925189 -2.279647 3.102418 -3.102418 
C 2.279647 -3.925189 1.163574 -4.387482 0 -4.387482 
C -1.163574 -4.387482 -2.279647 -3.925189 -3.102418 -3.102418 
C -3.925189 -2.279647 -4.387482 -1.163574 -4.387482 0 
C -4.387482 1.163574 -3.925189 2.279647 -3.102418 3.102418 
C -2.279647 3.925189 -1.163574 4.387482 0 4.387482 
z
" style="stroke: #ffffff; stroke-width: 0.5"/>
    </defs>
    <g clip-path="url(#p63aacfe17a)">
     <use xlink:href="#ma43b419b42" x="319.034491" y="61.234944" style="fill: #f28e2b; stroke: #ffffff; stroke-width: 0.5"/>
    </g>
   </g>
   <g id="text_35">
    <text style="font-size: 6.5px; font-family: 'Arial'; text-anchor: start" x="322.034491" y="59.234944" transform="rotate(-0 322.034491 59.234944)">A2C+Pointer</text>
   </g>
   <g id="PathCollection_4">
    <defs>
     <path id="mc7cba6a0bb" d="M 0 4.387482 
C 1.163574 4.387482 2.279647 3.925189 3.102418 3.102418 
C 3.925189 2.279647 4.387482 1.163574 4.387482 0 
C 4.387482 -1.163574 3.925189 -2.279647 3.102418 -3.102418 
C 2.279647 -3.925189 1.163574 -4.387482 0 -4.387482 
C -1.163574 -4.387482 -2.279647 -3.925189 -3.102418 -3.102418 
C -3.925189 -2.279647 -4.387482 -1.163574 -4.387482 0 
C -4.387482 1.163574 -3.925189 2.279647 -3.102418 3.102418 
C -2.279647 3.925189 -1.163574 4.387482 0 4.387482 
z
" style="stroke: #ffffff; stroke-width: 0.5"/>
    </defs>
    <g clip-path="url(#p63aacfe17a)">
     <use xlink:href="#mc7cba6a0bb" x="354.193942" y="87.380514" style="fill: #777777; stroke: #ffffff; stroke-width: 0.5"/>
    </g>
   </g>
   <g id="text_36">
    <text style="font-size: 6.5px; font-family: 'Arial'; text-anchor: start" x="357.193942" y="85.380514" transform="rotate(-0 357.193942 85.380514)">Priority Resource Greedy</text>
   </g>
   <g id="PathCollection_5">
    <defs>
     <path id="m92ac691e1b" d="M 0 4.387482 
C 1.163574 4.387482 2.279647 3.925189 3.102418 3.102418 
C 3.925189 2.279647 4.387482 1.163574 4.387482 0 
C 4.387482 -1.163574 3.925189 -2.279647 3.102418 -3.102418 
C 2.279647 -3.925189 1.163574 -4.387482 0 -4.387482 
C -1.163574 -4.387482 -2.279647 -3.925189 -3.102418 -3.102418 
C -3.925189 -2.279647 -4.387482 -1.163574 -4.387482 0 
C -4.387482 1.163574 -3.925189 2.279647 -3.102418 3.102418 
C -2.279647 3.925189 -1.163574 4.387482 0 4.387482 
z
" style="stroke: #ffffff; stroke-width: 0.5"/>
    </defs>
    <g clip-path="url(#p63aacfe17a)">
     <use xlink:href="#m92ac691e1b" x="485.716341" y="28.13921" style="fill: #8e6c8a; stroke: #ffffff; stroke-width: 0.5"/>
    </g>
   </g>
   <g id="text_37">
    <text style="font-size: 6.5px; font-family: 'Arial'; text-anchor: start" x="488.716341" y="26.13921" transform="rotate(-0 488.716341 26.13921)">ACO</text>
   </g>
   <g id="PathCollection_6">
    <defs>
     <path id="mfef2d03e03" d="M 0 4.387482 
C 1.163574 4.387482 2.279647 3.925189 3.102418 3.102418 
C 3.925189 2.279647 4.387482 1.163574 4.387482 0 
C 4.387482 -1.163574 3.925189 -2.279647 3.102418 -3.102418 
C 2.279647 -3.925189 1.163574 -4.387482 0 -4.387482 
C -1.163574 -4.387482 -2.279647 -3.925189 -3.102418 -3.102418 
C -3.925189 -2.279647 -4.387482 -1.163574 -4.387482 0 
C -4.387482 1.163574 -3.925189 2.279647 -3.102418 3.102418 
C -2.279647 3.925189 -1.163574 4.387482 0 4.387482 
z
" style="stroke: #ffffff; stroke-width: 0.5"/>
    </defs>
    <g clip-path="url(#p63aacfe17a)">
     <use xlink:href="#mfef2d03e03" x="443.662703" y="21.211742" style="fill: #4e4e4e; stroke: #ffffff; stroke-width: 0.5"/>
    </g>
   </g>
   <g id="text_38">
    <text style="font-size: 6.5px; font-family: 'Arial'; text-anchor: start" x="446.662703" y="19.211742" transform="rotate(-0 446.662703 19.211742)">MILP</text>
   </g>
   <g id="PathCollection_7">
    <g clip-path="url(#p63aacfe17a)">
     <use xlink:href="#m1624c3c2e7" x="322.304349" y="53.935519" style="fill: #2f6bbd; stroke: #ffffff; stroke-width: 0.5"/>
    </g>
   </g>
   <g id="text_39">
    <text style="font-size: 6.5px; font-family: 'Arial'; text-anchor: start" x="325.304349" y="51.935519" transform="rotate(-0 325.304349 51.935519)">PPO+Pointer</text>
   </g>
   <g id="PathCollection_8">
    <g clip-path="url(#p63aacfe17a)">
     <use xlink:href="#ma0cb3625a6" x="300.802641" y="169.060816" style="fill: #2a9d8f; stroke: #ffffff; stroke-width: 0.5"/>
    </g>
   </g>
   <g id="text_40">
    <text style="font-size: 6.5px; font-family: 'Arial'; text-anchor: start" x="303.802641" y="167.060816" transform="rotate(-0 303.802641 167.060816)">Flat-MLP PPO</text>
   </g>
   <g id="PathCollection_9">
    <g clip-path="url(#p63aacfe17a)">
     <use xlink:href="#ma43b419b42" x="321.512004" y="51.602097" style="fill: #f28e2b; stroke: #ffffff; stroke-width: 0.5"/>
    </g>
   </g>
   <g id="text_41">
    <text style="font-size: 6.5px; font-family: 'Arial'; text-anchor: start" x="324.512004" y="49.602097" transform="rotate(-0 324.512004 49.602097)">A2C+Pointer</text>
   </g>
   <g id="PathCollection_10">
    <g clip-path="url(#p63aacfe17a)">
     <use xlink:href="#mc7cba6a0bb" x="353.45279" y="78.707287" style="fill: #777777; stroke: #ffffff; stroke-width: 0.5"/>
    </g>
   </g>
   <g id="text_42">
    <text style="font-size: 6.5px; font-family: 'Arial'; text-anchor: start" x="356.45279" y="76.707287" transform="rotate(-0 356.45279 76.707287)">Priority Resource Greedy</text>
   </g>
   <g id="PathCollection_11">
    <g clip-path="url(#p63aacfe17a)">
     <use xlink:href="#m92ac691e1b" x="466.544124" y="25.531257" style="fill: #8e6c8a; stroke: #ffffff; stroke-width: 0.5"/>
    </g>
   </g>
   <g id="text_43">
    <text style="font-size: 6.5px; font-family: 'Arial'; text-anchor: start" x="469.544124" y="23.531257" transform="rotate(-0 469.544124 23.531257)">ACO</text>
   </g>
   <g id="PathCollection_12">
    <g clip-path="url(#p63aacfe17a)">
     <use xlink:href="#mfef2d03e03" x="437.914868" y="18.019354" style="fill: #4e4e4e; stroke: #ffffff; stroke-width: 0.5"/>
    </g>
   </g>
   <g id="text_44">
    <text style="font-size: 6.5px; font-family: 'Arial'; text-anchor: start" x="440.914868" y="16.019354" transform="rotate(-0 440.914868 16.019354)">MILP</text>
   </g>
   <g id="text_45">
    <text style="font-weight: 700; font-size: 10px; font-family: 'Arial'; text-anchor: start" x="266.561269" y="9.317812" transform="rotate(-0 266.561269 9.317812)">b</text>
   </g>
  </g>
 </g>
 <defs>
  <clipPath id="p4e743ec9a2">
   <rect x="29.8" y="10.46728" width="207.819465" height="166.145609"/>
  </clipPath>
  <clipPath id="p63aacfe17a">
   <rect x="287.343215" y="10.46728" width="207.819465" height="166.145609"/>
  </clipPath>
 </defs>
</svg>
