<?xml version="1.0" encoding="utf-8" standalone="no"?>
<!DOCTYPE svg PUBLIC "-//W3C//DTD SVG 1.1//EN"
  "http://www.w3.org/Graphics/SVG/1.1/DTD/svg11.dtd">
<svg xmlns:xlink="http://www.w3.org/1999/xlink" width="506.673123pt" height="295.584319pt" viewBox="0 0 506.673123 295.584319" xmlns="http://www.w3.org/2000/svg" version="1.1">
 <metadata>
  <rdf:RDF xmlns:dc="http://purl.org/dc/elements/1.1/" xmlns:cc="http://creativecommons.org/ns#" xmlns:rdf="http://www.w3.org/1999/02/22-rdf-syntax-ns#">
   <cc:Work>
    <dc:type rdf:resource="http://purl.org/dc/dcmitype/StillImage"/>
    <dc:date>2026-08-09T14:38:37.516471</dc:date>
    <dc:format>image/svg+xml</dc:format>
    <dc:creator>
     <cc:Agent>
      <dc:title>Matplotlib v3.10.6, https://matplotlib.org/</dc:title>
     </cc:Agent>
    </dc:creator>
   </cc:Work>
  </rdf:RDF>
 </metadata>
 <defs>
  <style type="text/css">*{stroke-linejoin: round; stroke-linecap: butt}</style>
 </defs>
 <g id="figure_1">
  <g id="patch_1">
   <path d="M 0 295.584319 
L 506.673123 295.584319 
L 506.673123 0 
L 0 0 
z
" style="fill: #ffffff"/>
  </g>
  <g id="axes_1">
   <g id="patch_2">
    <path d="M 53.647188 267.07182 
L 248.538539 267.07182 
L 248.538539 22.994719 
L 53.647188 22.994719 
z
" style="fill: #ffffff"/>
   </g>
   <g id="PathCollection_1">
    <defs>
     <path id="mdab3962896" d="M 0 2.54951 
C 0.676138 2.54951 1.324674 2.280877 1.802776 1.802776 
C 2.280877 1.324674 2.54951 0.676138 2.54951 0 
C 2.54951 -0.676138 2.280877 -1.324674 1.802776 -1.802776 
C 1.324674 -2.280877 0.676138 -2.54951 0 -2.54951 
C -0.676138 -2.54951 -1.324674 -2.280877 -1.802776 -1.802776 
C -2.280877 -1.324674 -2.54951 -0.676138 -2.54951 0 
C -2.54951 0.676138 -2.280877 1.324674 -1.802776 1.802776 
C -1.324674 2.280877 -0.676138 2.54951 0 2.54951 
z
" style="stroke: #1764ab"/>
    </defs>
    <g clip-path="url(#pbe21158986)">
     <use xlink:href="#mdab3962896" x="219.168281" y="255.977406" style="fill: #1764ab; stroke: #1764ab"/>
     <use xlink:href="#mdab3962896" x="233.241626" y="99.718059" style="fill: #1764ab; stroke: #1764ab"/>
    </g>
   </g>
   <g id="PathCollection_2">
    <defs>
     <path id="m22facd12f4" d="M 0 2.54951 
C 0.676138 2.54951 1.324674 2.280877 1.802776 1.802776 
C 2.280877 1.324674 2.54951 0.676138 2.54951 0 
C 2.54951 -0.676138 2.280877 -1.324674 1.802776 -1.802776 
C 1.324674 -2.280877 0.676138 -2.54951 0 -2.54951 
C -0.676138 -2.54951 -1.324674 -2.280877 -1.802776 -1.802776 
C -2.280877 -1.324674 -2.54951 -0.676138 -2.54951 0 
C -2.54951 0.676138 -2.280877 1.324674 -1.802776 1.802776 
C -1.324674 2.280877 -0.676138 2.54951 0 2.54951 
z
" style="stroke: #e07a1f"/>
    </defs>
    <g clip-path="url(#pbe21158986)">
     <use xlink:href="#m22facd12f4" x="218.917108" y="234.101097" style="fill: #e07a1f; stroke: #e07a1f"/>
     <use xlink:href="#m22facd12f4" x="227.51592" y="77.84175" style="fill: #e07a1f; stroke: #e07a1f"/>
    </g>
   </g>
   <g id="PathCollection_3">
    <defs>
     <path id="mbea211e81d" d="M 0 2.54951 
C 0.676138 2.54951 1.324674 2.280877 1.802776 1.802776 
C 2.280877 1.324674 2.54951 0.676138 2.54951 0 
C 2.54951 -0.676138 2.280877 -1.324674 1.802776 -1.802776 
C 1.324674 -2.280877 0.676138 -2.54951 0 -2.54951 
C -0.676138 -2.54951 -1.324674 -2.280877 -1.802776 -1.802776 
C -2.280877 -1.324674 -2.54951 -0.676138 -2.54951 0 
C -2.54951 0.676138 -2.280877 1.324674 -1.802776 1.802776 
C -1.324674 2.280877 -0.676138 2.54951 0 2.54951 
z
" style="stroke: #2a9d55"/>
    </defs>
    <g clip-path="url(#pbe21158986)">
     <use xlink:href="#mbea211e81d" x="228.578277" y="212.224789" style="fill: #2a9d55; stroke: #2a9d55"/>
     <use xlink:href="#mbea211e81d" x="235.217687" y="55.965442" style="fill: #2a9d55; stroke: #2a9d55"/>
    </g>
   </g>
   <g id="PathCollection_4">
    <defs>
     <path id="mbb5efcc57e" d="M 0 2.54951 
C 0.676138 2.54951 1.324674 2.280877 1.802776 1.802776 
C 2.280877 1.324674 2.54951 0.676138 2.54951 0 
C 2.54951 -0.676138 2.280877 -1.324674 1.802776 -1.802776 
C 1.324674 -2.280877 0.676138 -2.54951 0 -2.54951 
C -0.676138 -2.54951 -1.324674 -2.280877 -1.802776 -1.802776 
C -2.280877 -1.324674 -2.54951 -0.676138 -2.54951 0 
C -2.54951 0.676138 -2.280877 1.324674 -1.802776 1.802776 
C -1.324674 2.280877 -0.676138 2.54951 0 2.54951 
z
" style="stroke: #8064a2"/>
    </defs>
    <g clip-path="url(#pbe21158986)">
     <use xlink:href="#mbb5efcc57e" x="218.791522" y="190.34848" style="fill: #8064a2; stroke: #8064a2"/>
     <use xlink:href="#mbb5efcc57e" x="223.254959" y="34.089133" style="fill: #8064a2; stroke: #8064a2"/>
    </g>
   </g>
   <g id="matplotlib.axis_1">
    <g id="xtick_1">
     <g id="line2d_1">
      <path d="M 58.835692 267.07182 
L 58.835692 22.994719 
" clip-path="url(#pbe21158986)" style="fill: none; stroke: #e0e5e9; stroke-width: 0.5; stroke-linecap: square"/>
     </g>
     <g id="line2d_2">
      <defs>
       <path id="md43942e6b7" d="M 0 0 
L 0 3.5 
" style="stroke: #000000; stroke-width: 0.8"/>
      </defs>
      <g>
       <use xlink:href="#md43942e6b7" x="58.835692" y="267.07182" style="stroke: #000000; stroke-width: 0.8"/>
      </g>
     </g>
     <g id="text_1">
      <text style="font-size: 7.5px; font-family: 'Arial'; text-anchor: middle" x="58.835692" y="279.440179" transform="rotate(-0 58.835692 279.440179)">0.850</text>
     </g>
    </g>
    <g id="xtick_2">
     <g id="line2d_3">
      <path d="M 88.976384 267.07182 
L 88.976384 22.994719 
" clip-path="url(#pbe21158986)" style="fill: none; stroke: #e0e5e9; stroke-width: 0.5; stroke-linecap: square"/>
     </g>
     <g id="line2d_4">
      <g>
       <use xlink:href="#md43942e6b7" x="88.976384" y="267.07182" style="stroke: #000000; stroke-width: 0.8"/>
      </g>
     </g>
     <g id="text_2">
      <text style="font-size: 7.5px; font-family: 'Arial'; text-anchor: middle" x="88.976384" y="279.440179" transform="rotate(-0 88.976384 279.440179)">0.875</text>
     </g>
    </g>
    <g id="xtick_3">
     <g id="line2d_5">
      <path d="M 119.117075 267.07182 
L 119.117075 22.994719 
" clip-path="url(#pbe21158986)" style="fill: none; stroke: #e0e5e9; stroke-width: 0.5; stroke-linecap: square"/>
     </g>
     <g id="line2d_6">
      <g>
       <use xlink:href="#md43942e6b7" x="119.117075" y="267.07182" style="stroke: #000000; stroke-width: 0.8"/>
      </g>
     </g>
     <g id="text_3">
      <text style="font-size: 7.5px; font-family: 'Arial'; text-anchor: middle" x="119.117075" y="279.440179" transform="rotate(-0 119.117075 279.440179)">0.900</text>
     </g>
    </g>
    <g id="xtick_4">
     <g id="line2d_7">
      <path d="M 149.257767 267.07182 
L 149.257767 22.994719 
" clip-path="url(#pbe21158986)" style="fill: none; stroke: #e0e5e9; stroke-width: 0.5; stroke-linecap: square"/>
     </g>
     <g id="line2d_8">
      <g>
       <use xlink:href="#md43942e6b7" x="149.257767" y="267.07182" style="stroke: #000000; stroke-width: 0.8"/>
      </g>
     </g>
     <g id="text_4">
      <text style="font-size: 7.5px; font-family: 'Arial'; text-anchor: middle" x="149.257767" y="279.440179" transform="rotate(-0 149.257767 279.440179)">0.925</text>
     </g>
    </g>
    <g id="xtick_5">
     <g id="line2d_9">
      <path d="M 179.398458 267.07182 
L 179.398458 22.994719 
" clip-path="url(#pbe21158986)" style="fill: none; stroke: #e0e5e9; stroke-width: 0.5; stroke-linecap: square"/>
     </g>
     <g id="line2d_10">
      <g>
       <use xlink:href="#md43942e6b7" x="179.398458" y="267.07182" style="stroke: #000000; stroke-width: 0.8"/>
      </g>
     </g>
     <g id="text_5">
      <text style="font-size: 7.5px; font-family: 'Arial'; text-anchor: middle" x="179.398458" y="279.440179" transform="rotate(-0 179.398458 279.440179)">0.950</text>
     </g>
    </g>
    <g id="xtick_6">
     <g id="line2d_11">
      <path d="M 209.53915 267.07182 
L 209.53915 22.994719 
" clip-path="url(#pbe21158986)" style="fill: none; stroke: #e0e5e9; stroke-width: 0.5; stroke-linecap: square"/>
     </g>
     <g id="line2d_12">
      <g>
       <use xlink:href="#md43942e6b7" x="209.53915" y="267.07182" style="stroke: #000000; stroke-width: 0.8"/>
      </g>
     </g>
     <g id="text_6">
      <text style="font-size: 7.5px; font-family: 'Arial'; text-anchor: middle" x="209.53915" y="279.440179" transform="rotate(-0 209.53915 279.440179)">0.975</text>
     </g>
    </g>
    <g id="xtick_7">
     <g id="line2d_13">
      <path d="M 239.679842 267.07182 
L 239.679842 22.994719 
" clip-path="url(#pbe21158986)" style="fill: none; stroke: #e0e5e9; stroke-width: 0.5; stroke-linecap: square"/>
     </g>
     <g id="line2d_14">
      <g>
       <use xlink:href="#md43942e6b7" x="239.679842" y="267.07182" style="stroke: #000000; stroke-width: 0.8"/>
      </g>
     </g>
     <g id="text_7">
      <text style="font-size: 7.5px; font-family: 'Arial'; text-anchor: middle" x="239.679842" y="279.440179" transform="rotate(-0 239.679842 279.440179)">1.000</text>
     </g>
    </g>
    <g id="text_8">
     <text style="font-size: 8.5px; font-family: 'Arial'; text-anchor: middle" x="151.092863" y="291.014945" transform="rotate(-0 151.092863 291.014945)">D1 retention relative to nominal</text>
    </g>
   </g>
   <g id="matplotlib.axis_2">
    <g id="ytick_1">
     <g id="line2d_15">
      <defs>
       <path id="m1ba9c939f1" d="M 0 0 
L -3.5 0 
" style="stroke: #000000; stroke-width: 0.8"/>
      </defs>
      <g>
       <use xlink:href="#m1ba9c939f1" x="53.647188" y="223.162943" style="stroke: #000000; stroke-width: 0.8"/>
      </g>
     </g>
     <g id="text_9">
      <text style="font-size: 7.5px; font-family: 'Arial'; text-anchor: end" x="46.647188" y="225.847123" transform="rotate(-0 46.647188 225.847123)">Power Model</text>
     </g>
    </g>
    <g id="ytick_2">
     <g id="line2d_16">
      <g>
       <use xlink:href="#m1ba9c939f1" x="53.647188" y="66.903596" style="stroke: #000000; stroke-width: 0.8"/>
      </g>
     </g>
     <g id="text_10">
      <text style="font-size: 7.5px; font-family: 'Arial'; text-anchor: end" x="46.647188" y="69.587776" transform="rotate(-0 46.647188 69.587776)">Wind</text>
     </g>
    </g>
   </g>
   <g id="line2d_17">
    <path d="M 239.679842 267.07182 
L 239.679842 22.994719 
" clip-path="url(#pbe21158986)" style="fill: none; stroke-dasharray: 2.775,1.2; stroke-dashoffset: 0; stroke: #555555; stroke-width: 0.75"/>
   </g>
   <g id="patch_3">
    <path d="M 53.647188 267.07182 
L 53.647188 22.994719 
" style="fill: none; stroke: #000000; stroke-width: 0.75; stroke-linejoin: miter; stroke-linecap: square"/>
   </g>
   <g id="patch_4">
    <path d="M 248.538539 267.07182 
L 248.538539 22.994719 
" style="fill: none; stroke: #000000; stroke-width: 0.75; stroke-linejoin: miter; stroke-linecap: square"/>
   </g>
   <g id="patch_5">
    <path d="M 53.647187 267.07182 
L 248.538539 267.07182 
" style="fill: none; stroke: #000000; stroke-width: 0.75; stroke-linejoin: miter; stroke-linecap: square"/>
   </g>
   <g id="patch_6">
    <path d="M 53.647187 22.994719 
L 248.538539 22.994719 
" style="fill: none; stroke: #000000; stroke-width: 0.75; stroke-linejoin: miter; stroke-linecap: square"/>
   </g>
   <g id="text_11">
    <text style="font-weight: 700; font-size: 10px; font-family: 'Arial'; text-anchor: start" x="39.030336" y="10.037812" transform="rotate(-0 39.030336 10.037812)">a</text>
   </g>
   <g id="text_12">
    <text style="font-size: 9px; font-family: 'Arial'; text-anchor: middle" x="151.092863" y="16.994719" transform="rotate(-0 151.092863 16.994719)">Known domain shift</text>
   </g>
  </g>
  <g id="axes_2">
   <g id="patch_7">
    <path d="M 308.377266 267.07182 
L 503.268618 267.07182 
L 503.268618 22.994719 
L 308.377266 22.994719 
z
" style="fill: #ffffff"/>
   </g>
   <g id="PathCollection_5">
    <g clip-path="url(#pcb9b6789e4)">
     <use xlink:href="#mdab3962896" x="484.118258" y="255.977406" style="fill: #1764ab; stroke: #1764ab"/>
     <use xlink:href="#mdab3962896" x="442.378783" y="193.649239" style="fill: #1764ab; stroke: #1764ab"/>
     <use xlink:href="#mdab3962896" x="343.860242" y="131.321073" style="fill: #1764ab; stroke: #1764ab"/>
     <use xlink:href="#mdab3962896" x="419.25426" y="68.992906" style="fill: #1764ab; stroke: #1764ab"/>
    </g>
   </g>
   <g id="PathCollection_6">
    <g clip-path="url(#pcb9b6789e4)">
     <use xlink:href="#m22facd12f4" x="488.843119" y="247.251463" style="fill: #e07a1f; stroke: #e07a1f"/>
     <use xlink:href="#m22facd12f4" x="445.936204" y="184.923296" style="fill: #e07a1f; stroke: #e07a1f"/>
     <use xlink:href="#m22facd12f4" x="319.496516" y="122.59513" style="fill: #e07a1f; stroke: #e07a1f"/>
     <use xlink:href="#m22facd12f4" x="364.046303" y="60.266963" style="fill: #e07a1f; stroke: #e07a1f"/>
    </g>
   </g>
   <g id="PathCollection_7">
    <g clip-path="url(#pcb9b6789e4)">
     <use xlink:href="#mbea211e81d" x="486.105852" y="238.525519" style="fill: #2a9d55; stroke: #2a9d55"/>
     <use xlink:href="#mbea211e81d" x="459.481575" y="176.197353" style="fill: #2a9d55; stroke: #2a9d55"/>
     <use xlink:href="#mbea211e81d" x="412.027926" y="113.869186" style="fill: #2a9d55; stroke: #2a9d55"/>
     <use xlink:href="#mbea211e81d" x="453.863514" y="51.54102" style="fill: #2a9d55; stroke: #2a9d55"/>
    </g>
   </g>
   <g id="PathCollection_8">
    <g clip-path="url(#pcb9b6789e4)">
     <use xlink:href="#mbb5efcc57e" x="481.665483" y="229.799576" style="fill: #8064a2; stroke: #8064a2"/>
     <use xlink:href="#mbb5efcc57e" x="429.471595" y="167.471409" style="fill: #8064a2; stroke: #8064a2"/>
     <use xlink:href="#mbb5efcc57e" x="317.235964" y="105.143243" style="fill: #8064a2; stroke: #8064a2"/>
     <use xlink:href="#mbb5efcc57e" x="401.756768" y="42.815076" style="fill: #8064a2; stroke: #8064a2"/>
    </g>
   </g>
   <g id="PathCollection_9">
    <defs>
     <path id="md7106997a1" d="M 0 2.54951 
C 0.676138 2.54951 1.324674 2.280877 1.802776 1.802776 
C 2.280877 1.324674 2.54951 0.676138 2.54951 0 
C 2.54951 -0.676138 2.280877 -1.324674 1.802776 -1.802776 
C 1.324674 -2.280877 0.676138 -2.54951 0 -2.54951 
C -0.676138 -2.54951 -1.324674 -2.280877 -1.802776 -1.802776 
C -2.280877 -1.324674 -2.54951 -0.676138 -2.54951 0 
C -2.54951 0.676138 -2.280877 1.324674 -1.802776 1.802776 
C -1.324674 2.280877 -0.676138 2.54951 0 2.54951 
z
" style="stroke: #a94f5c"/>
    </defs>
    <g clip-path="url(#pcb9b6789e4)">
     <use xlink:href="#md7106997a1" x="493.543632" y="221.073633" style="fill: #a94f5c; stroke: #a94f5c"/>
     <use xlink:href="#md7106997a1" x="489.592792" y="158.745466" style="fill: #a94f5c; stroke: #a94f5c"/>
     <use xlink:href="#md7106997a1" x="494.40992" y="96.4173" style="fill: #a94f5c; stroke: #a94f5c"/>
     <use xlink:href="#md7106997a1" x="494.40992" y="34.089133" style="fill: #a94f5c; stroke: #a94f5c"/>
    </g>
   </g>
   <g id="matplotlib.axis_3">
    <g id="xtick_8">
     <g id="line2d_18">
      <path d="M 313.565771 267.07182 
L 313.565771 22.994719 
" clip-path="url(#pcb9b6789e4)" style="fill: none; stroke: #e0e5e9; stroke-width: 0.5; stroke-linecap: square"/>
     </g>
     <g id="line2d_19">
      <g>
       <use xlink:href="#md43942e6b7" x="313.565771" y="267.07182" style="stroke: #000000; stroke-width: 0.8"/>
      </g>
     </g>
     <g id="text_13">
      <text style="font-size: 7.5px; font-family: 'Arial'; text-anchor: middle" x="313.565771" y="279.440179" transform="rotate(-0 313.565771 279.440179)">0.850</text>
     </g>
    </g>
    <g id="xtick_9">
     <g id="line2d_20">
      <path d="M 343.706463 267.07182 
L 343.706463 22.994719 
" clip-path="url(#pcb9b6789e4)" style="fill: none; stroke: #e0e5e9; stroke-width: 0.5; stroke-linecap: square"/>
     </g>
     <g id="line2d_21">
      <g>
       <use xlink:href="#md43942e6b7" x="343.706463" y="267.07182" style="stroke: #000000; stroke-width: 0.8"/>
      </g>
     </g>
     <g id="text_14">
      <text style="font-size: 7.5px; font-family: 'Arial'; text-anchor: middle" x="343.706463" y="279.440179" transform="rotate(-0 343.706463 279.440179)">0.875</text>
     </g>
    </g>
    <g id="xtick_10">
     <g id="line2d_22">
      <path d="M 373.847154 267.07182 
L 373.847154 22.994719 
" clip-path="url(#pcb9b6789e4)" style="fill: none; stroke: #e0e5e9; stroke-width: 0.5; stroke-linecap: square"/>
     </g>
     <g id="line2d_23">
      <g>
       <use xlink:href="#md43942e6b7" x="373.847154" y="267.07182" style="stroke: #000000; stroke-width: 0.8"/>
      </g>
     </g>
     <g id="text_15">
      <text style="font-size: 7.5px; font-family: 'Arial'; text-anchor: middle" x="373.847154" y="279.440179" transform="rotate(-0 373.847154 279.440179)">0.900</text>
     </g>
    </g>
    <g id="xtick_11">
     <g id="line2d_24">
      <path d="M 403.987846 267.07182 
L 403.987846 22.994719 
" clip-path="url(#pcb9b6789e4)" style="fill: none; stroke: #e0e5e9; stroke-width: 0.5; stroke-linecap: square"/>
     </g>
     <g id="line2d_25">
      <g>
       <use xlink:href="#md43942e6b7" x="403.987846" y="267.07182" style="stroke: #000000; stroke-width: 0.8"/>
      </g>
     </g>
     <g id="text_16">
      <text style="font-size: 7.5px; font-family: 'Arial'; text-anchor: middle" x="403.987846" y="279.440179" transform="rotate(-0 403.987846 279.440179)">0.925</text>
     </g>
    </g>
    <g id="xtick_12">
     <g id="line2d_26">
      <path d="M 434.128537 267.07182 
L 434.128537 22.994719 
" clip-path="url(#pcb9b6789e4)" style="fill: none; stroke: #e0e5e9; stroke-width: 0.5; stroke-linecap: square"/>
     </g>
     <g id="line2d_27">
      <g>
       <use xlink:href="#md43942e6b7" x="434.128537" y="267.07182" style="stroke: #000000; stroke-width: 0.8"/>
      </g>
     </g>
     <g id="text_17">
      <text style="font-size: 7.5px; font-family: 'Arial'; text-anchor: middle" x="434.128537" y="279.440179" transform="rotate(-0 434.128537 279.440179)">0.950</text>
     </g>
    </g>
    <g id="xtick_13">
     <g id="line2d_28">
      <path d="M 464.269229 267.07182 
L 464.269229 22.994719 
" clip-path="url(#pcb9b6789e4)" style="fill: none; stroke: #e0e5e9; stroke-width: 0.5; stroke-linecap: square"/>
     </g>
     <g id="line2d_29">
      <g>
       <use xlink:href="#md43942e6b7" x="464.269229" y="267.07182" style="stroke: #000000; stroke-width: 0.8"/>
      </g>
     </g>
     <g id="text_18">
      <text style="font-size: 7.5px; font-family: 'Arial'; text-anchor: middle" x="464.269229" y="279.440179" transform="rotate(-0 464.269229 279.440179)">0.975</text>
     </g>
    </g>
    <g id="xtick_14">
     <g id="line2d_30">
      <path d="M 494.40992 267.07182 
L 494.40992 22.994719 
" clip-path="url(#pcb9b6789e4)" style="fill: none; stroke: #e0e5e9; stroke-width: 0.5; stroke-linecap: square"/>
     </g>
     <g id="line2d_31">
      <g>
       <use xlink:href="#md43942e6b7" x="494.40992" y="267.07182" style="stroke: #000000; stroke-width: 0.8"/>
      </g>
     </g>
     <g id="text_19">
      <text style="font-size: 7.5px; font-family: 'Arial'; text-anchor: middle" x="494.40992" y="279.440179" transform="rotate(-0 494.40992 279.440179)">1.000</text>
     </g>
    </g>
    <g id="text_20">
     <text style="font-size: 8.5px; font-family: 'Arial'; text-anchor: middle" x="405.822942" y="291.014945" transform="rotate(-0 405.822942 291.014945)">D1 retention relative to nominal</text>
    </g>
   </g>
   <g id="matplotlib.axis_4">
    <g id="ytick_3">
     <g id="line2d_32">
      <g>
       <use xlink:href="#m1ba9c939f1" x="308.377266" y="238.525519" style="stroke: #000000; stroke-width: 0.8"/>
      </g>
     </g>
     <g id="text_21">
      <text style="font-size: 7.5px; font-family: 'Arial'; text-anchor: end" x="301.377266" y="241.209699" transform="rotate(-0 301.377266 241.209699)">Dem Error</text>
     </g>
    </g>
    <g id="ytick_4">
     <g id="line2d_33">
      <g>
       <use xlink:href="#m1ba9c939f1" x="308.377266" y="176.197353" style="stroke: #000000; stroke-width: 0.8"/>
      </g>
     </g>
     <g id="text_22">
      <text style="font-size: 7.5px; font-family: 'Arial'; text-anchor: end" x="301.377266" y="178.881532" transform="rotate(-0 301.377266 178.881532)">Localization</text>
     </g>
    </g>
    <g id="ytick_5">
     <g id="line2d_34">
      <g>
       <use xlink:href="#m1ba9c939f1" x="308.377266" y="113.869186" style="stroke: #000000; stroke-width: 0.8"/>
      </g>
     </g>
     <g id="text_23">
      <text style="font-size: 7.5px; font-family: 'Arial'; text-anchor: end" x="301.377266" y="116.553366" transform="rotate(-0 301.377266 116.553366)">Power Model</text>
     </g>
    </g>
    <g id="ytick_6">
     <g id="line2d_35">
      <g>
       <use xlink:href="#m1ba9c939f1" x="308.377266" y="51.54102" style="stroke: #000000; stroke-width: 0.8"/>
      </g>
     </g>
     <g id="text_24">
      <text style="font-size: 7.5px; font-family: 'Arial'; text-anchor: end" x="301.377266" y="54.225199" transform="rotate(-0 301.377266 54.225199)">Wind</text>
     </g>
    </g>
   </g>
   <g id="line2d_36">
    <path d="M 494.40992 267.07182 
L 494.40992 22.994719 
" clip-path="url(#pcb9b6789e4)" style="fill: none; stroke-dasharray: 2.775,1.2; stroke-dashoffset: 0; stroke: #555555; stroke-width: 0.75"/>
   </g>
   <g id="patch_8">
    <path d="M 308.377266 267.07182 
L 308.377266 22.994719 
" style="fill: none; stroke: #000000; stroke-width: 0.75; stroke-linejoin: miter; stroke-linecap: square"/>
   </g>
   <g id="patch_9">
    <path d="M 503.268618 267.07182 
L 503.268618 22.994719 
" style="fill: none; stroke: #000000; stroke-width: 0.75; stroke-linejoin: miter; stroke-linecap: square"/>
   </g>
   <g id="patch_10">
    <path d="M 308.377266 267.07182 
L 503.268618 267.07182 
" style="fill: none; stroke: #000000; stroke-width: 0.75; stroke-linejoin: miter; stroke-linecap: square"/>
   </g>
   <g id="patch_11">
    <path d="M 308.377266 22.994719 
L 503.268618 22.994719 
" style="fill: none; stroke: #000000; stroke-width: 0.75; stroke-linejoin: miter; stroke-linecap: square"/>
   </g>
   <g id="text_25">
    <text style="font-weight: 700; font-size: 10px; font-family: 'Arial'; text-anchor: start" x="293.760415" y="10.037812" transform="rotate(-0 293.760415 10.037812)">b</text>
   </g>
   <g id="text_26">
    <text style="font-size: 9px; font-family: 'Arial'; text-anchor: middle" x="405.822942" y="16.994719" transform="rotate(-0 405.822942 16.994719)">Hidden mismatch</text>
   </g>
   <g id="legend_1">
    <g id="patch_12">
     <path d="M 312.927266 263.82182 
L 407.789688 263.82182 
Q 409.089688 263.82182 409.089688 262.521819 
L 409.089688 217.199554 
Q 409.089688 215.899554 407.789688 215.899554 
L 312.927266 215.899554 
Q 311.627266 215.899554 311.627266 217.199554 
L 311.627266 262.521819 
Q 311.627266 263.82182 312.927266 263.82182 
z
" style="fill: #ffffff; opacity: 0.8; stroke: #cccccc; stroke-linejoin: miter"/>
    </g>
    <g id="PathCollection_10">
     <g>
      <use xlink:href="#mdab3962896" x="320.727266" y="221.445882" style="fill: #1764ab; stroke: #1764ab"/>
     </g>
    </g>
    <g id="text_27">
     <text style="font-size: 6.5px; font-family: 'Arial'; text-anchor: start" x="332.427266" y="223.152132" transform="rotate(-0 332.427266 223.152132)">PPO–Pointer</text>
    </g>
    <g id="PathCollection_11">
     <g>
      <use xlink:href="#m22facd12f4" x="320.727266" y="230.640335" style="fill: #e07a1f; stroke: #e07a1f"/>
     </g>
    </g>
    <g id="text_28">
     <text style="font-size: 6.5px; font-family: 'Arial'; text-anchor: start" x="332.427266" y="232.346585" transform="rotate(-0 332.427266 232.346585)">A2C–Pointer</text>
    </g>
    <g id="PathCollection_12">
     <g>
      <use xlink:href="#mbea211e81d" x="320.727266" y="239.834788" style="fill: #2a9d55; stroke: #2a9d55"/>
     </g>
    </g>
    <g id="text_29">
     <text style="font-size: 6.5px; font-family: 'Arial'; text-anchor: start" x="332.427266" y="241.541038" transform="rotate(-0 332.427266 241.541038)">Flat-MLP PPO</text>
    </g>
    <g id="PathCollection_13">
     <g>
      <use xlink:href="#mbb5efcc57e" x="320.727266" y="249.029241" style="fill: #8064a2; stroke: #8064a2"/>
     </g>
    </g>
    <g id="text_30">
     <text style="font-size: 6.5px; font-family: 'Arial'; text-anchor: start" x="332.427266" y="250.735491" transform="rotate(-0 332.427266 250.735491)">No domain randomization</text>
    </g>
    <g id="PathCollection_14">
     <g>
      <use xlink:href="#md7106997a1" x="320.727266" y="258.223694" style="fill: #a94f5c; stroke: #a94f5c"/>
     </g>
    </g>
    <g id="text_31">
     <text style="font-size: 6.5px; font-family: 'Arial'; text-anchor: start" x="332.427266" y="259.929944" transform="rotate(-0 332.427266 259.929944)">No return reserve</text>
    </g>
   </g>
  </g>
 </g>
 <defs>
  <clipPath id="pbe21158986">
   <rect x="53.647188" y="22.994719" width="194.891352" height="244.0771"/>
  </clipPath>
  <clipPath id="pcb9b6789e4">
   <rect x="308.377266" y="22.994719" width="194.891352" height="244.0771"/>
  </clipPath>
 </defs>
</svg>
