<?xml version="1.0" encoding="utf-8" standalone="no"?>
<!DOCTYPE svg PUBLIC "-//W3C//DTD SVG 1.1//EN"
  "http://www.w3.org/Graphics/SVG/1.1/DTD/svg11.dtd">
<svg xmlns:xlink="http://www.w3.org/1999/xlink" width="518.408969pt" height="219.268811pt" viewBox="0 0 518.408969 219.268811" xmlns="http://www.w3.org/2000/svg" version="1.1">
 <metadata>
  <rdf:RDF xmlns:dc="http://purl.org/dc/elements/1.1/" xmlns:cc="http://creativecommons.org/ns#" xmlns:rdf="http://www.w3.org/1999/02/22-rdf-syntax-ns#">
   <cc:Work>
    <dc:type rdf:resource="http://purl.org/dc/dcmitype/StillImage"/>
    <dc:date>2026-08-09T15:52:51.643889</dc:date>
    <dc:format>image/svg+xml</dc:format>
    <dc:creator>
     <cc:Agent>
      <dc:title>Matplotlib v3.10.6, https://matplotlib.org/</dc:title>
     </cc:Agent>
    </dc:creator>
   </cc:Work>
  </rdf:RDF>
 </metadata>
 <defs>
  <style type="text/css">*{stroke-linejoin: round; stroke-linecap: butt}</style>
 </defs>
 <g id="figure_1">
  <g id="patch_1">
   <path d="M 0 219.268811 
L 518.408969 219.268811 
L 518.408969 0 
L 0 0 
z
" style="fill: #ffffff"/>
  </g>
  <g id="axes_1">
   <g id="patch_2">
    <path d="M 13.089439 79.835954 
L 110.509978 79.835954 
Q 116.662854 79.835954 116.662854 76.671517 
L 116.662854 13.38277 
Q 116.662854 10.218333 110.509978 10.218333 
L 13.089439 10.218333 
Q 6.936563 10.218333 6.936563 13.38277 
L 6.936563 76.671517 
Q 6.936563 79.835954 13.089439 79.835954 
z
" clip-path="url(#p0cb469b800)" style="fill: #f4f7fa; stroke: #4079a7; stroke-linejoin: miter"/>
   </g>
   <g id="patch_3">
    <path d="M 141.274359 79.835954 
L 238.694897 79.835954 
Q 244.847773 79.835954 244.847773 76.671517 
L 244.847773 13.38277 
Q 244.847773 10.218333 238.694897 10.218333 
L 141.274359 10.218333 
Q 135.121482 10.218333 135.121482 13.38277 
L 135.121482 76.671517 
Q 135.121482 79.835954 141.274359 79.835954 
z
" clip-path="url(#p0cb469b800)" style="fill: #f4f7fa; stroke: #4079a7; stroke-linejoin: miter"/>
   </g>
   <g id="patch_4">
    <path d="M 269.459278 79.835954 
L 366.879817 79.835954 
Q 373.032693 79.835954 373.032693 76.671517 
L 373.032693 13.38277 
Q 373.032693 10.218333 366.879817 10.218333 
L 269.459278 10.218333 
Q 263.306402 10.218333 263.306402 13.38277 
L 263.306402 76.671517 
Q 263.306402 79.835954 269.459278 79.835954 
z
" clip-path="url(#p0cb469b800)" style="fill: #f4f7fa; stroke: #4079a7; stroke-linejoin: miter"/>
   </g>
   <g id="patch_5">
    <path d="M 397.644197 79.835954 
L 505.31953 79.835954 
Q 511.472406 79.835954 511.472406 76.671517 
L 511.472406 13.38277 
Q 511.472406 10.218333 505.31953 10.218333 
L 397.644197 10.218333 
Q 391.491321 10.218333 391.491321 13.38277 
L 391.491321 76.671517 
Q 391.491321 79.835954 397.644197 79.835954 
z
" clip-path="url(#p0cb469b800)" style="fill: #f4f7fa; stroke: #4079a7; stroke-linejoin: miter"/>
   </g>
   <g id="patch_6">
    <path d="M 74.618201 198.502354 
L 202.80312 198.502354 
Q 208.955996 198.502354 208.955996 195.337917 
L 208.955996 134.686201 
Q 208.955996 131.521764 202.80312 131.521764 
L 74.618201 131.521764 
Q 68.465324 131.521764 68.465324 134.686201 
L 68.465324 195.337917 
Q 68.465324 198.502354 74.618201 198.502354 
z
" clip-path="url(#p0cb469b800)" style="fill: #f4f8f3; stroke: #608a67; stroke-linejoin: miter"/>
   </g>
   <g id="patch_7">
    <path d="M 315.605849 198.502354 
L 443.790768 198.502354 
Q 449.943644 198.502354 449.943644 195.337917 
L 449.943644 134.686201 
Q 449.943644 131.521764 443.790768 131.521764 
L 315.605849 131.521764 
Q 309.452973 131.521764 309.452973 134.686201 
L 309.452973 195.337917 
Q 309.452973 198.502354 315.605849 198.502354 
z
" clip-path="url(#p0cb469b800)" style="fill: #f4f8f3; stroke: #608a67; stroke-linejoin: miter"/>
   </g>
   <g id="patch_8">
    <path d="M 112.511615 45.027143 
Q 125.894086 45.027143 138.270325 45.027143 
" clip-path="url(#p0cb469b800)" style="fill: none; stroke: #46535d; stroke-width: 0.9; stroke-linecap: round"/>
    <path d="M 134.270325 43.027143 
L 138.270325 45.027143 
L 134.270325 47.027143 
z
" clip-path="url(#p0cb469b800)" style="fill: #46535d; stroke: #46535d; stroke-width: 0.9; stroke-linecap: round"/>
   </g>
   <g id="patch_9">
    <path d="M 240.696535 45.027143 
Q 254.079005 45.027143 266.455245 45.027143 
" clip-path="url(#p0cb469b800)" style="fill: none; stroke: #46535d; stroke-width: 0.9; stroke-linecap: round"/>
    <path d="M 262.455245 43.027143 
L 266.455245 45.027143 
L 262.455245 47.027143 
z
" clip-path="url(#p0cb469b800)" style="fill: #46535d; stroke: #46535d; stroke-width: 0.9; stroke-linecap: round"/>
   </g>
   <g id="patch_10">
    <path d="M 368.881454 45.027143 
Q 382.263924 45.027143 394.640164 45.027143 
" clip-path="url(#p0cb469b800)" style="fill: none; stroke: #46535d; stroke-width: 0.9; stroke-linecap: round"/>
    <path d="M 390.640164 43.027143 
L 394.640164 45.027143 
L 390.640164 47.027143 
z
" clip-path="url(#p0cb469b800)" style="fill: #46535d; stroke: #46535d; stroke-width: 0.9; stroke-linecap: round"/>
   </g>
   <g id="patch_11">
    <path d="M 449.950357 77.955106 
Q 416.873584 105.677477 384.567999 132.753499 
" clip-path="url(#p0cb469b800)" style="fill: none; stroke: #46535d; stroke-width: 0.9; stroke-linecap: round"/>
    <path d="M 388.918348 131.716934 
L 384.567999 132.753499 
L 386.348956 128.651281 
z
" clip-path="url(#p0cb469b800)" style="fill: #46535d; stroke: #46535d; stroke-width: 0.9; stroke-linecap: round"/>
   </g>
   <g id="patch_12">
    <path d="M 313.605776 166.330575 
Q 259.20366 166.330575 205.807775 166.330575 
" clip-path="url(#p0cb469b800)" style="fill: none; stroke: #46535d; stroke-width: 0.9; stroke-linecap: round"/>
    <path d="M 209.807775 168.330575 
L 205.807775 166.330575 
L 209.807775 164.330575 
z
" clip-path="url(#p0cb469b800)" style="fill: #46535d; stroke: #46535d; stroke-width: 0.9; stroke-linecap: round"/>
   </g>
   <g id="patch_13">
    <path d="M 137.133776 133.455726 
Q 101.538077 105.679673 66.73567 78.522642 
" clip-path="url(#p0cb469b800)" style="fill: none; stroke: #46535d; stroke-width: 0.9; stroke-linecap: round"/>
    <path d="M 68.658811 82.560157 
L 66.73567 78.522642 
L 71.119567 79.406638 
z
" clip-path="url(#p0cb469b800)" style="fill: #46535d; stroke: #46535d; stroke-width: 0.9; stroke-linecap: round"/>
   </g>
   <g id="text_1">
    <text style="font-weight: 700; font-size: 8.2px; font-family: 'Microsoft YaHei', 'Arial', 'DejaVu Sans', sans-serif; text-anchor: start" x="19.242315" y="37.078347" transform="rotate(-0 19.242315 37.078347)">山区公路任务</text>
   </g>
   <g id="text_2">
    <text style="font-size: 7.1px; font-family: 'Microsoft YaHei', 'Arial', 'DejaVu Sans', sans-serif" transform="translate(19.242315 49.38419)">固定巡检点</text>
    <text style="font-size: 7.1px; font-family: 'Microsoft YaHei', 'Arial', 'DejaVu Sans', sans-serif" transform="translate(19.242315 58.243659)">DSM、风场与预算</text>
   </g>
   <g id="text_3">
    <text style="font-weight: 700; font-size: 8.2px; font-family: 'Microsoft YaHei', 'Arial', 'DejaVu Sans', sans-serif; text-anchor: start" x="147.427235" y="37.078347" transform="rotate(-0 147.427235 37.078347)">状态编码</text>
   </g>
   <g id="text_4">
    <text style="font-size: 7.1px; font-family: 'Microsoft YaHei', 'Arial', 'DejaVu Sans', sans-serif" transform="translate(147.427235 49.38419)">巡检点、路线与资源特征</text>
    <text style="font-size: 7.1px; font-family: 'Microsoft YaHei', 'Arial', 'DejaVu Sans', sans-serif" transform="translate(147.427235 58.243659)">以及动作掩码</text>
   </g>
   <g id="text_5">
    <text style="font-weight: 700; font-size: 8.2px; font-family: 'Microsoft YaHei', 'Arial', 'DejaVu Sans', sans-serif; text-anchor: start" x="275.612154" y="37.078347" transform="rotate(-0 275.612154 37.078347)">PPO–Pointer策略</text>
   </g>
   <g id="text_6">
    <text style="font-size: 7.1px; font-family: 'Microsoft YaHei', 'Arial', 'DejaVu Sans', sans-serif" transform="translate(275.612154 49.38419)">带截断策略更新的</text>
    <text style="font-size: 7.1px; font-family: 'Microsoft YaHei', 'Arial', 'DejaVu Sans', sans-serif" transform="translate(275.612154 58.243659)">变长候选选择</text>
   </g>
   <g id="text_7">
    <text style="font-weight: 700; font-size: 8.2px; font-family: 'Microsoft YaHei', 'Arial', 'DejaVu Sans', sans-serif; text-anchor: start" x="403.797073" y="37.078347" transform="rotate(-0 403.797073 37.078347)">返航感知决策</text>
   </g>
   <g id="text_8">
    <text style="font-size: 7.1px; font-family: 'Microsoft YaHei', 'Arial', 'DejaVu Sans', sans-serif" transform="translate(403.797073 49.38419)">选择可行下一点</text>
    <text style="font-size: 7.1px; font-family: 'Microsoft YaHei', 'Arial', 'DejaVu Sans', sans-serif" transform="translate(403.797073 58.243659)">或显式返回基地</text>
   </g>
   <g id="text_9">
    <text style="font-weight: 700; font-size: 8.2px; font-family: 'Microsoft YaHei', 'Arial', 'DejaVu Sans', sans-serif; text-anchor: start" x="80.771077" y="158.381778" transform="rotate(-0 80.771077 158.381778)">冻结评价</text>
   </g>
   <g id="text_10">
    <text style="font-size: 7.1px; font-family: 'Microsoft YaHei', 'Arial', 'DejaVu Sans', sans-serif" transform="translate(80.771077 170.687622)">未见合成地图、DSM迁移</text>
    <text style="font-size: 7.1px; font-family: 'Microsoft YaHei', 'Arial', 'DejaVu Sans', sans-serif" transform="translate(80.771077 179.54709)">与鲁棒性偏移</text>
   </g>
   <g id="text_11">
    <text style="font-weight: 700; font-size: 8.2px; font-family: 'Microsoft YaHei', 'Arial', 'DejaVu Sans', sans-serif; text-anchor: start" x="321.758725" y="158.381778" transform="rotate(-0 321.758725 158.381778)">证据输出</text>
   </g>
   <g id="text_12">
    <text style="font-size: 7.1px; font-family: 'Microsoft YaHei', 'Arial', 'DejaVu Sans', sans-serif" transform="translate(321.758725 170.687622)">覆盖率、安全性、资源、时间</text>
    <text style="font-size: 7.1px; font-family: 'Microsoft YaHei', 'Arial', 'DejaVu Sans', sans-serif" transform="translate(321.758725 179.54709)">训练与消融结果</text>
   </g>
   <g id="text_13">
    <text style="font-size: 7.4px; font-family: 'Microsoft YaHei', 'Arial', 'DejaVu Sans', sans-serif; text-anchor: middle; fill: #7a4b3a" x="259.204484" y="112.990812" transform="rotate(-0 259.204484 112.990812)">冻结协议：不重训模型，不重新计算结果</text>
   </g>
  </g>
 </g>
 <defs>
  <clipPath id="p0cb469b800">
   <rect x="2.834646" y="2.834646" width="512.739677" height="213.59952"/>
  </clipPath>
 </defs>
</svg>
